<svg width="24" height="24" viewBox="0 0 24 24" fill="none" xmlns="http://www.w3.org/2000/svg">
<g clip-path="url(#clip0_493_13519)">
<path d="M18.5 24.0001H5.5C4.0418 23.9985 2.64377 23.4186 1.61267 22.3875C0.581561 21.3563 0.00158817 19.9583 0 18.5001L0 5.50012C0.00158817 4.04192 0.581561 2.64389 1.61267 1.61279C2.64377 0.581683 4.0418 0.00171024 5.5 0.00012207L18.5 0.00012207C19.9582 0.00171024 21.3562 0.581683 22.3873 1.61279C23.4184 2.64389 23.9984 4.04192 24 5.50012V18.5001C23.9984 19.9583 23.4184 21.3563 22.3873 22.3875C21.3562 23.4186 19.9582 23.9985 18.5 24.0001ZM5.5 3.00012C4.83696 3.00012 4.20107 3.26351 3.73223 3.73236C3.26339 4.2012 3 4.83708 3 5.50012V18.5001C3 19.1632 3.26339 19.799 3.73223 20.2679C4.20107 20.7367 4.83696 21.0001 5.5 21.0001H18.5C19.163 21.0001 19.7989 20.7367 20.2678 20.2679C20.7366 19.799 21 19.1632 21 18.5001V5.50012C21 4.83708 20.7366 4.2012 20.2678 3.73236C19.7989 3.26351 19.163 3.00012 18.5 3.00012H5.5ZM19 7.00012C19 6.46969 18.7893 5.96098 18.4142 5.58591C18.0391 5.21084 17.5304 5.00012 17 5.00012H7C6.46957 5.00012 5.96086 5.21084 5.58579 5.58591C5.21071 5.96098 5 6.46969 5 7.00012C5 7.53056 5.21071 8.03926 5.58579 8.41434C5.96086 8.78941 6.46957 9.00012 7 9.00012H17C17.5304 9.00012 18.0391 8.78941 18.4142 8.41434C18.7893 8.03926 19 7.53056 19 7.00012ZM6.5 11.5001C6.20333 11.5001 5.91332 11.5881 5.66664 11.7529C5.41997 11.9177 5.22771 12.152 5.11418 12.4261C5.00065 12.7002 4.97094 13.0018 5.02882 13.2928C5.0867 13.5837 5.22956 13.851 5.43934 14.0608C5.64912 14.2706 5.91639 14.4134 6.20736 14.4713C6.49834 14.5292 6.79994 14.4995 7.07403 14.3859C7.34811 14.2724 7.58238 14.0802 7.7472 13.8335C7.91203 13.5868 8 13.2968 8 13.0001C8 12.6023 7.84196 12.2208 7.56066 11.9395C7.27936 11.6582 6.89782 11.5001 6.5 11.5001ZM11.5 11.5001C11.2033 11.5001 10.9133 11.5881 10.6666 11.7529C10.42 11.9177 10.2277 12.152 10.1142 12.4261C10.0006 12.7002 9.97094 13.0018 10.0288 13.2928C10.0867 13.5837 10.2296 13.851 10.4393 14.0608C10.6491 14.2706 10.9164 14.4134 11.2074 14.4713C11.4983 14.5292 11.7999 14.4995 12.074 14.3859C12.3481 14.2724 12.5824 14.0802 12.7472 13.8335C12.912 13.5868 13 13.2968 13 13.0001C13 12.6023 12.842 12.2208 12.5607 11.9395C12.2794 11.6582 11.8978 11.5001 11.5 11.5001ZM6.5 16.0001C6.20333 16.0001 5.91332 16.0881 5.66664 16.2529C5.41997 16.4177 5.22771 16.652 5.11418 16.9261C5.00065 17.2002 4.97094 17.5018 5.02882 17.7928C5.0867 18.0837 5.22956 18.351 5.43934 18.5608C5.64912 18.7706 5.91639 18.9134 6.20736 18.9713C6.49834 19.0292 6.79994 18.9995 7.07403 18.8859C7.34811 18.7724 7.58238 18.5802 7.7472 18.3335C7.91203 18.0868 8 17.7968 8 17.5001C8 17.1023 7.84196 16.7208 7.56066 16.4395C7.27936 16.1582 6.89782 16.0001 6.5 16.0001ZM11.5 16.0001C11.2033 16.0001 10.9133 16.0881 10.6666 16.2529C10.42 16.4177 10.2277 16.652 10.1142 16.9261C10.0006 17.2002 9.97094 17.5018 10.0288 17.7928C10.0867 18.0837 10.2296 18.351 10.4393 18.5608C10.6491 18.7706 10.9164 18.9134 11.2074 18.9713C11.4983 19.0292 11.7999 18.9995 12.074 18.8859C12.3481 18.7724 12.5824 18.5802 12.7472 18.3335C12.912 18.0868 13 17.7968 13 17.5001C13 17.1023 12.842 16.7208 12.5607 16.4395C12.2794 16.1582 11.8978 16.0001 11.5 16.0001ZM19 17.5001C19 17.1023 18.842 16.7208 18.5607 16.4395C18.2794 16.1582 17.8978 16.0001 17.5 16.0001H16.5C16.1022 16.0001 15.7206 16.1582 15.4393 16.4395C15.158 16.7208 15 17.1023 15 17.5001C15 17.8979 15.158 18.2795 15.4393 18.5608C15.7206 18.8421 16.1022 19.0001 16.5 19.0001H17.5C17.8978 19.0001 18.2794 18.8421 18.5607 18.5608C18.842 18.2795 19 17.8979 19 17.5001ZM19 13.0001C19 12.6023 18.842 12.2208 18.5607 11.9395C18.2794 11.6582 17.8978 11.5001 17.5 11.5001H16.5C16.1022 11.5001 15.7206 11.6582 15.4393 11.9395C15.158 12.2208 15 12.6023 15 13.0001C15 13.3979 15.158 13.7795 15.4393 14.0608C15.7206 14.3421 16.1022 14.5001 16.5 14.5001H17.5C17.8978 14.5001 18.2794 14.3421 18.5607 14.0608C18.842 13.7795 19 13.3979 19 13.0001Z" fill="#F5C200"/>
</g>
<defs>
<clipPath id="clip0_493_13519">
<rect width="24" height="24" fill="white"/>
</clipPath>
</defs>
</svg>
