<svg width="24" height="24" viewBox="0 0 24 24" fill="none" xmlns="http://www.w3.org/2000/svg">
<g clip-path="url(#clip0_493_13600)">
<path d="M11.476 14.9999C11.2108 14.9999 10.9564 15.1052 10.7689 15.2928C10.5814 15.4803 10.476 15.7347 10.476 15.9999V18.9999C10.476 19.7955 10.1599 20.5586 9.59732 21.1212C9.03471 21.6838 8.27165 21.9999 7.476 21.9999H5C4.20435 21.9999 3.44129 21.6838 2.87868 21.1212C2.31607 20.5586 2 19.7955 2 18.9999V4.99988C2 4.20423 2.31607 3.44117 2.87868 2.87856C3.44129 2.31595 4.20435 1.99988 5 1.99988H7.476C8.27165 1.99988 9.03471 2.31595 9.59732 2.87856C10.1599 3.44117 10.476 4.20423 10.476 4.99988V7.99988C10.476 8.26509 10.5814 8.51945 10.7689 8.70698C10.9564 8.89452 11.2108 8.99988 11.476 8.99988C11.7412 8.99988 11.9956 8.89452 12.1831 8.70698C12.3706 8.51945 12.476 8.26509 12.476 7.99988V4.99988C12.4744 3.67428 11.9471 2.40344 11.0098 1.4661C10.0724 0.52876 8.80159 0.00146579 7.476 -0.00012207H5C3.67441 0.00146579 2.40356 0.52876 1.46622 1.4661C0.528882 2.40344 0.00158786 3.67428 0 4.99988L0 18.9999C0.00158786 20.3255 0.528882 21.5963 1.46622 22.5337C2.40356 23.471 3.67441 23.9983 5 23.9999H7.476C8.80159 23.9983 10.0724 23.471 11.0098 22.5337C11.9471 21.5963 12.4744 20.3255 12.476 18.9999V15.9999C12.476 15.7347 12.3706 15.4803 12.1831 15.2928C11.9956 15.1052 11.7412 14.9999 11.476 14.9999Z" fill="#F5C200"/>
<path d="M22.867 9.87908L18.281 5.29308C18.1888 5.19757 18.0784 5.12139 17.9564 5.06898C17.8344 5.01657 17.7032 4.98898 17.5704 4.98783C17.4376 4.98668 17.3059 5.01198 17.183 5.06226C17.0602 5.11254 16.9485 5.18679 16.8546 5.28069C16.7607 5.37458 16.6865 5.48623 16.6362 5.60913C16.5859 5.73202 16.5606 5.8637 16.5618 5.99648C16.5629 6.12926 16.5905 6.26048 16.6429 6.38249C16.6953 6.50449 16.7715 6.61483 16.867 6.70708L21.129 10.9701L6 11.0001C5.73478 11.0001 5.48043 11.1054 5.29289 11.293C5.10536 11.4805 5 11.7349 5 12.0001C5 12.2653 5.10536 12.5197 5.29289 12.7072C5.48043 12.8947 5.73478 13.0001 6 13.0001L21.188 12.9691L16.865 17.2931C16.7695 17.3853 16.6933 17.4957 16.6409 17.6177C16.5885 17.7397 16.5609 17.8709 16.5598 18.0037C16.5586 18.1365 16.5839 18.2681 16.6342 18.391C16.6845 18.5139 16.7587 18.6256 16.8526 18.7195C16.9465 18.8134 17.0582 18.8876 17.181 18.9379C17.3039 18.9882 17.4356 19.0135 17.5684 19.0123C17.7012 19.0112 17.8324 18.9836 17.9544 18.9312C18.0764 18.8788 18.1868 18.8026 18.279 18.7071L22.865 14.1211C23.4277 13.5588 23.744 12.796 23.7444 12.0005C23.7447 11.205 23.4292 10.4419 22.867 9.87908Z" fill="#F5C200"/>
</g>
<defs>
<clipPath id="clip0_493_13600">
<rect width="24" height="24" fill="white"/>
</clipPath>
</defs>
</svg>
