<svg width="24" height="24" viewBox="0 0 24 24" fill="none" xmlns="http://www.w3.org/2000/svg">
<g clip-path="url(#clip0_493_13533)">
<path d="M24 5.50011C23.9967 2.46392 21.5362 0.0034502 18.5 0.00012207H5.49998C2.4638 0.0034502 0.00332812 2.46392 0 5.50011V6.50009C0.000375 7.41368 0.359484 8.29062 0.999984 8.94209V18.5001C1.00331 21.5363 3.46383 23.9968 6.50002 24.0001H17.5C20.5362 23.9968 22.9967 21.5363 23 18.5001V8.94214C23.6406 8.29067 23.9997 7.41373 24 6.50014V5.50011ZM3 5.50011C3 4.1194 4.11928 3.00012 5.49998 3.00012H18.5C19.8807 3.00012 21 4.1194 21 5.50011V6.50009C21 6.77623 20.7761 7.00011 20.5 7.00011H3.50002C3.22388 7.00011 3 6.77623 3 6.50009V5.50011ZM20 18.5001C20 19.8808 18.8807 21.0001 17.5 21.0001H6.50002C5.11931 21.0001 4.00003 19.8808 4.00003 18.5001V10.0001H20V18.5001Z" fill="#F5C200"/>
<path d="M9.5 12.0001H14.5C15.3285 12.0001 16 12.6717 16 13.5001C16 14.3285 15.3285 15.0001 14.5 15.0001H9.5C8.67158 15.0001 8 14.3285 8 13.5001C8 12.6717 8.67158 12.0001 9.5 12.0001Z" fill="#F5C200"/>
</g>
<defs>
<clipPath id="clip0_493_13533">
<rect width="24" height="24" fill="white"/>
</clipPath>
</defs>
</svg>
