<svg width="24" height="24" viewBox="0 0 24 24" fill="none" xmlns="http://www.w3.org/2000/svg">
<g clip-path="url(#clip0_493_13490)">
<path d="M22.485 10.9754L12 17.2674L1.515 10.9754C1.28758 10.8389 1.01526 10.7984 0.757962 10.8627C0.500662 10.9271 0.279453 11.091 0.143 11.3184C0.00654566 11.5458 -0.0339759 11.8181 0.030349 12.0754C0.094674 12.3327 0.258576 12.5539 0.486 12.6904L11.486 19.2904C11.6415 19.3838 11.8196 19.4332 12.001 19.4332C12.1824 19.4332 12.3605 19.3838 12.516 19.2904L23.516 12.6904C23.7434 12.5539 23.9073 12.3327 23.9717 12.0754C24.036 11.8181 23.9955 11.5458 23.859 11.3184C23.7225 11.091 23.5013 10.9271 23.244 10.8627C22.9867 10.7984 22.7144 10.8389 22.487 10.9754H22.485Z" fill="#F5C200"/>
<path d="M22.485 15.5429L12 21.8339L1.515 15.5429C1.40239 15.4753 1.27757 15.4306 1.14768 15.4113C1.01779 15.392 0.885361 15.3984 0.757959 15.4303C0.630557 15.4621 0.510676 15.5187 0.405161 15.5969C0.299645 15.6751 0.210562 15.7733 0.142997 15.8859C0.0754315 15.9985 0.0307078 16.1233 0.0113792 16.2532C-0.00794938 16.3831 -0.00150444 16.5155 0.0303461 16.6429C0.094671 16.9002 0.258573 17.1215 0.485997 17.2579L11.486 23.8579C11.6415 23.9514 11.8196 24.0007 12.001 24.0007C12.1824 24.0007 12.3605 23.9514 12.516 23.8579L23.516 17.2579C23.7434 17.1215 23.9073 16.9002 23.9716 16.6429C24.036 16.3856 23.9955 16.1133 23.859 15.8859C23.7225 15.6585 23.5013 15.4946 23.244 15.4303C22.9867 15.3659 22.7144 15.4064 22.487 15.5429H22.485Z" fill="#F5C200"/>
<path d="M11.9997 14.7735C11.4603 14.7732 10.9311 14.6263 10.4687 14.3485L0.484684 8.35754C0.336831 8.26864 0.214494 8.143 0.129564 7.99283C0.0446343 7.84266 0 7.67307 0 7.50055C0 7.32802 0.0446343 7.15843 0.129564 7.00826C0.214494 6.85809 0.336831 6.73245 0.484684 6.64355L10.4687 0.652544C10.9311 0.374773 11.4603 0.228027 11.9997 0.228027C12.5391 0.228027 13.0683 0.374773 13.5307 0.652544L23.5147 6.64355C23.6625 6.73245 23.7849 6.85809 23.8698 7.00826C23.9547 7.15843 23.9994 7.32802 23.9994 7.50055C23.9994 7.67307 23.9547 7.84266 23.8698 7.99283C23.7849 8.143 23.6625 8.26864 23.5147 8.35754L13.5307 14.3485C13.0683 14.6263 12.5391 14.7732 11.9997 14.7735ZM2.94368 7.50055L11.4997 12.6335C11.6508 12.7239 11.8236 12.7717 11.9997 12.7717C12.1758 12.7717 12.3486 12.7239 12.4997 12.6335L21.0557 7.50055L12.4997 2.36754C12.3486 2.27715 12.1758 2.22941 11.9997 2.22941C11.8236 2.22941 11.6508 2.27715 11.4997 2.36754L2.94368 7.50055Z" fill="#F5C200"/>
</g>
<defs>
<clipPath id="clip0_493_13490">
<rect width="24" height="24" fill="white"/>
</clipPath>
</defs>
</svg>
