<svg width="516" height="350" viewBox="0 0 516 350" fill="none" xmlns="http://www.w3.org/2000/svg">
<g clip-path="url(#clip0_359_5565)">
<path d="M261.402 98.3712C256.801 90.5981 251.349 82.2988 242.811 79.7607C232.924 76.8214 222.766 82.6604 214.151 88.4223C188.385 105.654 163.572 124.329 139.826 144.361L139.852 144.662C158.34 143.36 176.827 142.058 195.314 140.755C208.671 139.815 222.487 138.744 234.291 132.289C238.771 129.84 243.137 126.568 248.213 126.34C254.519 126.057 260.017 130.556 264.338 135.256C289.899 163.06 297.296 205.578 325.972 230.005C307.889 184.452 286.299 140.436 261.402 98.3712Z" fill="#F2F2F2"/>
<path d="M418.517 334.194C415.691 330.548 414.536 329.694 411.748 326.015C389.045 296.022 367.707 265.015 347.733 232.996C334.165 211.25 321.271 189.086 309.049 166.505C303.23 155.769 297.571 144.949 292.072 134.045C287.804 125.591 283.632 117.085 279.555 108.53C278.389 106.086 277.256 103.631 276.129 101.17C273.472 95.384 270.865 89.5697 268.066 83.862C264.877 77.3567 260.994 70.5368 255.137 66.1662C252.471 64.0955 249.284 62.8426 245.947 62.554C241.179 62.2394 236.779 64.2505 232.644 66.4471C202.385 82.5643 174.057 102.771 148.435 125.765C122.747 148.81 99.7857 174.845 80.02 203.34C79.4153 204.222 77.9854 203.379 78.5957 202.492C80.9991 199.02 83.4501 195.586 85.9487 192.189C117.017 149.981 155.112 113.684 198.491 84.9575C205.789 80.1262 213.225 75.5216 220.798 71.1435C224.614 68.9357 228.447 66.756 232.347 64.7112C236.169 62.7056 240.227 60.9023 244.594 60.8349C259.454 60.599 267.148 77.7893 272.433 89.3562C274.094 92.9965 275.775 96.6255 277.476 100.243C283.905 113.979 290.581 127.589 297.505 141.073C301.778 149.399 306.145 157.675 310.605 165.903C324.486 191.526 339.239 216.63 354.866 241.215C375.566 273.781 396.101 302.549 419.683 333.003C420.332 333.846 419.172 335.048 418.517 334.194Z" fill="#E4E4E4"/>
<path d="M146.969 117.277C146.105 116.293 145.247 115.31 144.378 114.327C137.526 106.586 130.173 98.9346 120.763 94.4966C116.277 92.3137 111.379 91.1539 106.41 91.0978C101.273 91.1147 96.252 92.491 91.5059 94.418C89.2621 95.3336 87.0676 96.3729 84.9065 97.4796C82.4371 98.7492 80.0117 100.103 77.5976 101.468C73.0658 104.03 68.5929 106.704 64.1787 109.49C55.3958 115.035 46.888 121.003 38.6552 127.394C34.3874 130.709 30.2077 134.132 26.1161 137.663C22.3104 140.944 18.5818 144.313 14.9301 147.77C14.1492 148.506 12.9832 147.315 13.7641 146.579C14.7265 145.663 15.7 144.753 16.6734 143.854C19.4232 141.315 22.217 138.824 25.0548 136.382C30.2297 131.922 35.5386 127.634 40.9815 123.518C49.4454 117.114 58.2006 111.144 67.2472 105.608C71.768 102.845 76.3509 100.197 80.9961 97.665C82.3987 96.901 83.8176 96.1538 85.2529 95.446C88.5098 93.7679 91.8937 92.3607 95.372 91.2383C100.299 89.6101 105.512 89.087 110.655 89.7047C115.621 90.4425 120.406 92.1332 124.756 94.6876C133.995 99.9627 141.161 108.12 148.135 116.08C148.839 116.889 147.678 118.085 146.969 117.277Z" fill="#E4E4E4"/>
<path d="M336.273 197.496L358.412 189.225L369.405 185.118C372.985 183.78 376.556 182.258 380.257 181.3C383.473 180.362 386.888 180.406 390.08 181.428C392.926 182.504 395.531 184.154 397.741 186.279C399.998 188.403 402.099 190.694 404.025 193.134C406.418 196.072 408.776 199.041 411.145 202C420.92 214.211 430.631 226.476 440.278 238.793C449.925 251.11 459.507 263.48 469.025 275.902C478.567 288.354 488.042 300.859 497.452 313.415C498.605 314.953 499.757 316.492 500.908 318.032C501.544 318.883 502.977 318.044 502.332 317.181C492.853 304.499 483.307 291.868 473.696 279.289C464.06 266.68 454.359 254.125 444.59 241.623C434.822 229.121 424.988 216.673 415.088 204.28C412.621 201.193 410.151 198.108 407.676 195.028C405.589 192.429 403.525 189.802 401.235 187.383C397.033 182.944 391.782 179.02 385.497 178.913C381.802 178.851 378.226 180.049 374.792 181.317C371.091 182.685 367.399 184.079 363.702 185.46L341.408 193.789L335.835 195.871C334.845 196.241 335.273 197.87 336.273 197.496Z" fill="#E4E4E4"/>
<path d="M117.847 104.238C106.596 98.3309 92.1883 99.4878 81.8496 106.867C101.57 110.343 121.074 114.993 140.263 120.794C132.295 116.024 126.062 108.55 117.847 104.238Z" fill="#F2F2F2"/>
<path d="M81.7401 106.847L79.5742 108.645C80.3068 108.016 81.0685 107.425 81.8509 106.867C81.8139 106.861 81.7771 106.853 81.7401 106.847Z" fill="#F2F2F2"/>
<path d="M396.907 197.579C394.728 194.869 392.371 192.032 389.112 190.931L386.068 191.054C409.236 232.871 440.524 269.41 478.015 298.429C450.979 264.812 423.943 231.196 396.907 197.579Z" fill="#F2F2F2"/>
<path d="M207.659 175.225C209.068 180.451 212.241 185.001 216.617 188.068C218.308 189.245 220.31 190.374 220.889 192.379C221.193 193.657 221.006 195.006 220.365 196.148C219.725 197.274 218.946 198.312 218.048 199.237L217.966 199.551C213.768 197.009 209.774 193.794 207.455 189.408C205.135 185.022 204.812 179.273 207.659 175.225Z" fill="#F2F2F2"/>
<path d="M347.437 299.623C348.845 304.85 352.018 309.399 356.394 312.467C358.086 313.643 360.087 314.772 360.666 316.777C360.971 318.056 360.783 319.405 360.142 320.546C359.502 321.673 358.724 322.711 357.826 323.635L357.744 323.949C353.545 321.408 349.551 318.193 347.232 313.807C344.913 309.42 344.589 303.672 347.437 299.623Z" fill="#F2F2F2"/>
<path d="M68.4796 291.044C69.8879 296.271 73.0608 300.82 77.4369 303.887C79.1287 305.064 81.1304 306.193 81.7091 308.198C82.0136 309.477 81.826 310.826 81.1851 311.967C80.5453 313.094 79.7668 314.132 78.8686 315.056L78.7867 315.37C74.5883 312.829 70.5941 309.614 68.2749 305.227C65.9557 300.841 65.632 295.092 68.4796 291.044Z" fill="#F2F2F2"/>
<path d="M389.49 62.5057C406.387 62.5057 420.085 48.5133 420.085 31.2528C420.085 13.9924 406.387 0 389.49 0C372.593 0 358.895 13.9924 358.895 31.2528C358.895 48.5133 372.593 62.5057 389.49 62.5057Z" fill="#F5C200"/>
<path d="M444.701 7.27382C429.873 5.22649 412.945 13.4133 409.102 28.1847C408.133 25.5584 406.372 23.3145 404.074 21.7773C401.775 20.2401 399.057 19.4892 396.313 19.633C393.569 19.7769 390.941 20.808 388.809 22.5775C386.676 24.3469 385.149 26.7631 384.449 29.477L386.147 30.7189C417.922 37.7381 450.815 37.5862 482.527 30.2738C472.213 19.2011 459.529 9.32111 444.701 7.27382Z" fill="#F0F0F0"/>
<path d="M381.111 48.9447C366.283 46.8974 349.355 55.0842 345.512 69.8556C344.543 67.2293 342.782 64.9854 340.484 63.4482C338.185 61.911 335.467 61.1601 332.723 61.3039C329.98 61.4478 327.352 62.4789 325.219 64.2484C323.086 66.0178 321.56 68.434 320.859 71.1479L322.557 72.3898C354.333 79.409 387.225 79.2571 418.938 71.9447C408.623 60.872 395.939 50.992 381.111 48.9447Z" fill="#F0F0F0"/>
<path d="M510.528 56.8239C510.467 56.8241 510.406 56.8144 510.347 56.7952C351.727 5.55394 211.926 12.2546 122.579 26.899C110.419 28.8912 98.2274 31.1922 86.3418 33.7386C83.3074 34.3879 80.1593 35.0839 76.9852 35.8086C73.1945 36.6709 69.4541 37.559 65.8675 38.4471C64.3186 38.8217 62.7999 39.1993 61.3114 39.58C59.0568 40.1485 56.769 40.7409 54.3167 41.392C51.5764 42.1137 48.7921 42.8707 46.0395 43.6421C46.0294 43.6458 46.0192 43.6487 46.0088 43.6511L46.0091 43.6517C42.9 44.5188 39.8073 45.4111 36.8165 46.3022C35.1978 46.7798 33.6348 47.2507 32.1376 47.7157C31.9704 47.763 31.8222 47.8085 31.6719 47.8552L31.3503 47.9551C31.164 48.0131 30.98 48.07 30.7961 48.1238L30.7843 48.1274L30.7846 48.1281L30.2978 48.2825C29.7172 48.462 29.1507 48.6373 28.5935 48.8121C13.8688 53.4488 5.77418 56.7474 5.69421 56.7797C5.62109 56.8096 5.54291 56.8246 5.46413 56.8237C5.38535 56.8227 5.30753 56.806 5.23509 56.7743C5.16266 56.7427 5.09703 56.6968 5.04196 56.6392C4.9869 56.5817 4.94347 56.5136 4.91416 56.4389C4.88484 56.3642 4.87023 56.2843 4.87113 56.2039C4.87204 56.1234 4.88845 56.0439 4.91943 55.9699C4.95041 55.8959 4.99535 55.8289 5.05169 55.7726C5.10804 55.7164 5.17467 55.672 5.2478 55.6421C5.32835 55.6098 13.4626 52.2944 28.2409 47.6404C28.8001 47.465 29.368 47.2897 29.9504 47.1095L30.4026 46.9659C30.4182 46.9599 30.4337 46.9551 30.4495 46.9504C30.6326 46.8971 30.8154 46.8402 31.0011 46.7828L31.3233 46.6829C31.4838 46.6332 31.642 46.5841 31.804 46.5386C33.2909 46.0766 34.8592 45.6045 36.482 45.1251C39.4739 44.2334 42.5695 43.3412 45.681 42.4728C45.6907 42.4692 45.7006 42.4669 45.7103 42.4639C48.4725 41.6901 51.267 40.9295 54.0161 40.2053C56.4723 39.5536 58.7644 38.96 61.0229 38.3903C62.5177 38.0103 64.0393 37.6319 65.5878 37.255C69.1785 36.3658 72.9264 35.4765 76.7239 34.6123C79.903 33.887 83.0563 33.1893 86.0957 32.5393C97.9998 29.9888 110.211 27.6842 122.388 25.689C211.864 11.0237 351.866 4.31217 510.709 55.6271C510.845 55.6711 510.962 55.7636 511.038 55.8879C511.113 56.0121 511.143 56.1599 511.121 56.3045C511.099 56.4492 511.027 56.581 510.919 56.6763C510.81 56.7715 510.671 56.8239 510.528 56.8239Z" fill="#CCCCCC"/>
<path d="M157.769 257.278C157.561 256.658 157.212 256.097 156.749 255.642C156.578 255.48 156.394 255.335 156.197 255.207C154.632 254.141 152.292 253.902 150.804 255.207C150.654 255.34 150.516 255.485 150.39 255.642C149.946 256.2 149.49 256.745 149.022 257.278C148.255 258.173 147.469 259.037 146.647 259.877C146.413 260.109 146.179 260.348 145.939 260.581C145.801 260.722 145.663 260.857 145.525 260.992C144.997 261.507 144.457 262.003 143.911 262.493C143.623 262.757 143.335 263.014 143.041 263.265C142.603 263.639 142.165 264.013 141.722 264.374C141.68 264.405 141.638 264.436 141.596 264.473C141.584 264.479 141.578 264.491 141.566 264.497C141.56 264.497 141.554 264.497 141.548 264.509C141.531 264.516 141.517 264.526 141.506 264.54C141.374 264.632 141.284 264.693 141.218 264.748C141.242 264.736 141.266 264.718 141.29 264.705C141.182 264.791 141.068 264.877 140.96 264.963C139.91 265.753 138.836 266.513 137.738 267.224C135.022 269 132.169 270.547 129.207 271.851C129.009 271.93 128.805 272.016 128.602 272.096C120.847 275.341 112.436 276.607 104.095 275.785C103.243 275.717 102.391 275.626 101.54 275.509C100.556 275.362 99.5779 275.184 98.6061 274.982C94.9062 274.228 91.286 273.112 87.7957 271.648C83.4297 269.606 79.2772 267.118 75.4016 264.221C74.8017 263.786 74.1958 263.351 73.5899 262.928C74.2798 261.2 74.9577 259.472 75.6176 257.732C75.9476 256.892 76.2655 256.053 76.5775 255.207C79.0311 248.693 81.3347 242.118 83.5424 235.518C85.774 228.832 87.8797 222.108 89.8594 215.344C90.0634 214.658 90.2614 213.972 90.4533 213.285C91.4912 209.713 92.487 206.132 93.4409 202.543C93.5309 202.194 93.6269 201.85 93.7108 201.501C93.9868 200.472 94.2567 199.442 94.5207 198.413C95.1206 196.09 93.7648 193.314 91.3772 192.756C90.2276 192.455 89.0085 192.622 87.9767 193.221C86.945 193.82 86.1811 194.805 85.846 195.968C85.5881 196.96 85.3301 197.947 85.0662 198.94C83.8004 203.738 82.4686 208.52 81.0708 213.285C80.8668 213.972 80.6628 214.658 80.4589 215.344C77.3753 225.725 73.9898 236.002 70.3024 246.174C69.8585 247.406 69.4085 248.634 68.9526 249.857C68.7306 250.458 68.5087 251.058 68.2807 251.659C67.8428 252.842 67.3929 254.024 66.9429 255.207C66.6849 255.899 66.421 256.592 66.1571 257.278C65.9831 257.713 65.8151 258.148 65.6471 258.577C63.9367 257.95 62.1645 257.514 60.3619 257.278L60.074 257.241C58.6764 257.07 57.2631 257.082 55.8686 257.278C53.7816 257.527 51.7735 258.241 49.9864 259.37C48.1992 260.499 46.6766 262.015 45.5262 263.811C42.6646 268.413 42.7006 274.994 46.714 278.904C50.8474 282.93 57.1044 282.899 61.9697 280.381C64.548 278.956 66.7219 276.875 68.2807 274.339C68.8779 273.419 69.4266 272.468 69.9245 271.489C70.0505 271.575 70.1764 271.661 70.3024 271.753C70.7823 272.096 71.2623 272.445 71.7362 272.788C74.4976 274.832 77.4076 276.657 80.4409 278.248C86.963 281.56 93.9838 283.729 101.21 284.664C101.372 284.683 101.528 284.707 101.69 284.726C102.487 284.83 103.291 284.909 104.095 284.977C115.627 285.865 127.172 283.454 137.438 278.015C138.308 277.556 139.17 277.074 140.024 276.569C141.35 275.785 142.645 274.951 143.911 274.069C144.601 273.591 145.273 273.107 145.939 272.598C148.849 270.409 151.561 267.958 154.044 265.275C154.985 264.264 155.887 263.22 156.749 262.144C157.564 261.263 158.034 260.107 158.069 258.896C158.064 258.343 157.963 257.795 157.769 257.278ZM58.4302 271.875C58.5562 271.783 58.6822 271.685 58.8022 271.587C58.7662 271.679 58.5922 271.783 58.4302 271.875ZM60.3559 269.896C60.218 270.055 60.092 270.214 59.954 270.374C59.5342 270.854 59.0833 271.304 58.6042 271.722C58.5382 271.783 58.4662 271.845 58.3942 271.9C58.3935 271.9 58.3927 271.9 58.3919 271.9C58.3912 271.9 58.3905 271.901 58.39 271.901C58.3894 271.902 58.389 271.903 58.3887 271.903C58.3884 271.904 58.3882 271.905 58.3882 271.906C58.3016 271.945 58.2174 271.99 58.1363 272.041C57.8783 272.2 57.6143 272.347 57.3444 272.482C56.8158 272.681 56.2721 272.834 55.7187 272.941C55.2934 272.973 54.8666 272.977 54.4409 272.954H54.4288C54.135 272.887 53.8447 272.805 53.559 272.709C53.415 272.635 53.277 272.549 53.139 272.463C53.085 272.414 53.037 272.365 53.0071 272.335C52.9485 272.28 52.8943 272.221 52.8451 272.157C52.8451 272.156 52.845 272.155 52.8447 272.155C52.8444 272.154 52.844 272.153 52.8434 272.153C52.8428 272.152 52.8422 272.152 52.8414 272.151C52.8407 272.151 52.8399 272.151 52.8391 272.151C52.7731 272.028 52.7011 271.906 52.6352 271.783C52.6317 271.78 52.6296 271.776 52.6292 271.771C52.5812 271.618 52.5392 271.458 52.5032 271.299C52.4902 271.019 52.4922 270.739 52.5092 270.46C52.5897 270.068 52.6979 269.683 52.8331 269.308C52.9546 269.041 53.0929 268.783 53.2471 268.535C53.2591 268.511 53.3191 268.413 53.385 268.303C53.391 268.296 53.391 268.296 53.391 268.29C53.481 268.186 53.571 268.076 53.667 267.978C53.829 267.794 54.003 267.635 54.1769 267.469C54.5153 267.243 54.8658 267.036 55.2268 266.85C55.7995 266.642 56.3871 266.481 56.9845 266.366C57.8653 266.295 58.7507 266.303 59.6301 266.391C60.4631 266.538 61.2849 266.745 62.0897 267.01C61.6019 267.976 61.0466 268.906 60.428 269.792C60.4039 269.828 60.38 269.865 60.3559 269.896ZM53.685 267.88C53.6321 267.966 53.5697 268.047 53.499 268.119C53.5466 268.028 53.6096 267.947 53.685 267.88Z" fill="#3F3D56"/>
<path d="M139.736 194.693C139.682 196.617 139.628 198.541 139.574 200.465C139.46 204.736 139.342 209.01 139.22 213.285C139.094 218.096 138.962 222.904 138.824 227.71C138.758 230.192 138.69 232.674 138.62 235.156C138.434 241.842 138.25 248.525 138.068 255.207C138.05 255.899 138.026 256.586 138.008 257.278C137.918 260.593 137.828 263.909 137.738 267.224C137.636 270.821 137.536 274.418 137.438 278.015C137.366 280.712 137.292 283.41 137.216 286.11C136.676 305.677 136.136 325.244 135.596 344.811C135.573 346.022 135.092 347.178 134.253 348.035C133.414 348.892 132.283 349.383 131.097 349.407C129.907 349.397 128.768 348.909 127.926 348.05C127.084 347.19 126.607 346.026 126.598 344.811C126.898 333.805 127.202 322.799 127.51 311.793C127.779 301.841 128.053 291.889 128.331 281.937C128.421 278.659 128.511 275.378 128.601 272.096C128.739 267.156 128.875 262.217 129.009 257.278C129.027 256.586 129.051 255.899 129.069 255.207C129.081 254.6 129.099 254 129.117 253.393C129.381 243.803 129.645 234.21 129.909 224.616C130.017 220.841 130.121 217.064 130.221 213.285C130.341 208.977 130.461 204.671 130.581 200.367C130.635 198.474 130.683 196.586 130.737 194.693C130.76 193.481 131.241 192.326 132.08 191.469C132.919 190.612 134.05 190.12 135.236 190.097C136.427 190.106 137.566 190.594 138.407 191.454C139.249 192.313 139.726 193.477 139.736 194.693Z" fill="#3F3D56"/>
<path d="M386.555 195.968C381.837 214.218 376.198 232.205 369.661 249.859C367.857 254.729 366.011 259.588 364.039 264.39L364.492 263.292C363.612 265.579 362.487 267.759 361.139 269.795C361.047 269.926 360.954 270.056 360.859 270.185C361.325 269.576 361.414 269.455 361.125 269.824C360.972 270.008 360.822 270.193 360.664 270.372C360.244 270.853 359.794 271.304 359.315 271.723C359.194 271.828 359.072 271.931 358.948 272.032L359.511 271.585C359.445 271.742 358.987 271.951 358.844 272.04C358.382 272.325 357.9 272.575 357.402 272.787L358.476 272.324C357.66 272.66 356.808 272.898 355.938 273.035L357.134 272.871C356.279 272.991 355.413 273.001 354.556 272.899L355.752 273.063C355.051 272.964 354.364 272.776 353.709 272.501L354.784 272.964C354.435 272.809 354.098 272.625 353.777 272.415C353.614 272.307 353.114 271.92 353.768 272.43C354.448 272.961 353.855 272.476 353.715 272.335C353.599 272.217 353.494 272.09 353.38 271.97C352.85 271.416 353.977 272.924 353.618 272.276C353.425 271.951 353.25 271.616 353.091 271.273L353.544 272.371C353.338 271.848 353.191 271.303 353.108 270.746L353.268 271.968C353.183 271.275 353.182 270.574 353.266 269.881L353.106 271.103C353.216 270.33 353.416 269.572 353.703 268.848L353.249 269.946C353.449 269.458 353.685 268.987 353.956 268.537C354.08 268.304 354.227 268.085 354.393 267.881C354.422 267.89 353.632 268.808 354.051 268.344C354.161 268.223 354.264 268.096 354.375 267.976C354.552 267.783 354.743 267.607 354.93 267.425C355.556 266.816 354.053 268.017 354.776 267.535C355.3 267.183 355.852 266.876 356.425 266.616L355.35 267.08C356.311 266.677 357.318 266.401 358.347 266.259L357.151 266.423C358.44 266.271 359.742 266.287 361.027 266.47L359.831 266.305C361.458 266.557 363.048 267.014 364.565 267.666L363.49 267.202C366.724 268.62 369.587 270.726 372.446 272.79C375.207 274.832 378.116 276.657 381.148 278.248C387.671 281.561 394.692 283.73 401.918 284.666C412.282 285.963 422.799 284.58 432.503 280.645C442.208 276.71 450.789 270.349 457.461 262.145C458.275 261.263 458.744 260.106 458.779 258.895C458.77 257.678 458.298 256.512 457.461 255.645C455.81 254.097 452.692 253.66 451.098 255.645C449.587 257.529 447.963 259.315 446.235 260.993C445.428 261.775 444.6 262.532 443.75 263.266C443.264 263.685 442.772 264.096 442.274 264.499C442.038 264.689 441.302 265.196 442.431 264.378C442.173 264.565 441.924 264.77 441.669 264.963C437.891 267.808 433.797 270.187 429.472 272.05L430.546 271.586C425.905 273.575 421.031 274.939 416.046 275.645L417.242 275.48C412.114 276.169 406.919 276.162 401.792 275.457L402.988 275.621C397.863 274.902 392.851 273.508 388.076 271.472L389.151 271.936C384.544 269.853 380.172 267.266 376.111 264.22C373.998 262.621 371.77 261.189 369.445 259.934C366.736 258.521 363.803 257.61 360.783 257.245C355.121 256.564 349.351 258.817 346.238 263.814C343.373 268.413 343.41 274.994 347.422 278.904C351.554 282.932 357.811 282.898 362.681 280.378C367.37 277.952 370.187 272.911 372.168 268.158C376.626 257.462 380.573 246.518 384.25 235.518C387.888 224.636 391.188 213.644 394.148 202.542C394.515 201.167 394.876 199.79 395.232 198.412C395.832 196.09 394.475 193.314 392.089 192.759C390.939 192.456 389.719 192.622 388.687 193.221C387.654 193.82 386.89 194.805 386.555 195.968Z" fill="#3F3D56"/>
<path d="M431.448 194.693L429.829 253.395L428.218 311.791L427.307 344.811C427.317 346.027 427.794 347.19 428.636 348.05C429.477 348.909 430.616 349.397 431.806 349.407C432.992 349.384 434.123 348.892 434.962 348.035C435.801 347.178 436.282 346.023 436.305 344.811L437.925 286.109L439.536 227.713L440.447 194.693C440.437 193.477 439.959 192.314 439.118 191.454C438.276 190.595 437.138 190.107 435.947 190.097C434.761 190.12 433.63 190.612 432.791 191.469C431.952 192.326 431.471 193.481 431.448 194.693Z" fill="#3F3D56"/>
<path opacity="0.2" d="M275.714 328.422H277.111V263.439H309.703V262.016H277.111V234.596H302.28C301.911 234.117 301.532 233.644 301.141 233.176H277.111V215.066C276.649 214.865 276.183 214.671 275.714 214.488V233.176H248.327V209.973C247.857 209.995 247.395 210.028 246.93 210.068V233.177H225.081V215.864C224.612 216.076 224.149 216.3 223.691 216.534V233.176H205.324V234.596H223.691V262.016H205.324V263.439H223.691V328.422H225.081V263.439C227.95 263.439 230.792 264.015 233.443 265.137C236.094 266.258 238.503 267.902 240.532 269.975C242.56 272.047 244.17 274.508 245.268 277.216C246.365 279.924 246.93 282.826 246.93 285.757V328.422H248.327V263.439H275.714V328.422ZM225.081 262.016V234.596H246.93V262.016H225.081ZM248.327 262.016V234.596H248.875C252.4 234.597 255.89 235.306 259.146 236.684C262.403 238.062 265.361 240.082 267.854 242.628C270.346 245.174 272.323 248.197 273.671 251.523C275.02 254.85 275.714 258.415 275.714 262.016H248.327Z" fill="black"/>
<path d="M267.18 308.937C265.421 316.952 261.208 324.186 255.152 329.589C254.708 329.981 254.264 330.361 253.802 330.735C252.68 330.839 251.567 330.945 250.461 331.053C249.543 331.139 248.637 331.231 247.737 331.317L247.575 331.335L247.461 330.33L247.005 326.261C245.237 323.312 244.14 319.993 243.798 316.552C243.455 313.111 243.875 309.635 245.026 306.382C246.609 302.019 249.477 298.164 252.296 294.34C256.19 289.058 259.975 283.837 260.113 277.396C262.029 279.901 263.622 282.646 264.853 285.565C263.691 286.124 262.648 286.908 261.781 287.875C261.535 288.151 261.289 288.537 261.457 288.868C261.601 289.15 261.961 289.217 262.273 289.254C263.023 289.334 263.779 289.413 264.529 289.493C265.128 289.561 265.728 289.622 266.328 289.689C267.054 292.123 267.546 294.622 267.798 297.153C268.202 301.09 267.994 305.067 267.18 308.937Z" fill="#3F3D56"/>
<path d="M287.099 292.876C283.559 295.505 281.49 299.286 279.882 303.453C278.234 303.992 276.752 304.959 275.581 306.26C275.335 306.535 275.089 306.921 275.257 307.252C275.401 307.534 275.761 307.602 276.073 307.638C276.822 307.718 277.578 307.798 278.328 307.877C276.72 312.804 275.245 317.903 272.401 322.064C270.51 324.811 268.045 327.094 265.184 328.749C264.404 329.203 263.599 329.611 262.773 329.969C259.725 330.208 256.735 330.463 253.804 330.735C252.682 330.839 251.568 330.945 250.462 331.053C249.545 331.139 248.639 331.231 247.739 331.317C247.733 330.98 247.733 330.643 247.739 330.306C247.929 321.327 251.162 312.695 256.887 305.88C257.157 305.561 257.433 305.248 257.715 304.936C260.616 301.771 264.027 299.139 267.8 297.153C273.745 293.996 280.408 292.519 287.099 292.876Z" fill="#F5C200"/>
<path d="M251.5 327.91L250.811 329.993L250.463 331.053C249.545 331.139 248.639 331.231 247.739 331.317L247.577 331.335C246.581 331.439 245.591 331.544 244.601 331.648C244.344 331.341 244.086 331.029 243.834 330.71C237.572 322.965 234.566 313.002 235.473 302.999C236.38 292.997 241.127 283.768 248.675 277.329C247.883 281.564 248.807 285.62 250.325 289.646C250.163 289.714 250.007 289.781 249.857 289.855C248.695 290.413 247.652 291.198 246.785 292.165C246.539 292.441 246.293 292.827 246.461 293.158C246.605 293.44 246.965 293.507 247.277 293.544C248.027 293.623 248.783 293.703 249.533 293.783C250.133 293.85 250.733 293.911 251.332 293.979C251.614 294.009 251.896 294.04 252.178 294.071C252.22 294.163 252.256 294.249 252.298 294.34C254.008 298.128 255.85 301.933 256.888 305.879C257.148 306.87 257.352 307.874 257.499 308.888C257.961 312.316 257.662 315.805 256.624 319.098C255.585 322.391 253.834 325.402 251.5 327.91Z" fill="#F5C200"/>
<path d="M311.885 239.03C306.721 228.739 298.719 220.081 289.309 213.719C279.869 207.365 269.036 203.496 257.776 202.456C256.3 202.319 254.821 202.238 253.338 202.215C251.585 202.188 225.222 209.956 216.391 216.298C207.565 222.564 200.304 230.861 195.194 240.521C190.094 250.233 187.585 261.145 187.92 272.162C188.357 283.244 191.382 294.059 196.741 303.706C202.026 313.321 209.532 321.472 218.604 327.449C227.805 333.447 237.048 349.348 247.912 349.91C258.858 350.475 271.341 335.475 281.324 330.921C291.307 326.328 299.938 319.144 306.355 310.082C312.592 301.203 316.626 290.91 318.113 280.087C319.657 269.006 318.937 257.577 315.233 246.986C314.282 244.264 313.164 241.607 311.885 239.03C310.817 236.882 307.688 236.091 305.729 237.381C304.72 238.016 303.989 239.023 303.688 240.195C303.388 241.366 303.541 242.61 304.115 243.669C304.742 244.931 305.325 246.213 305.864 247.516L305.41 246.418C307.45 251.428 308.837 256.689 309.536 262.068L309.375 260.846C310.118 266.681 310.105 272.591 309.335 278.423L309.496 277.201C308.718 283.032 307.194 288.734 304.964 294.16L305.417 293.062C304.27 295.83 302.932 298.513 301.415 301.089C300.646 302.39 299.83 303.661 298.967 304.901C298.588 305.445 298.198 305.98 297.804 306.514C297.29 307.209 298.504 305.605 297.973 306.287C297.883 306.403 297.793 306.52 297.702 306.636C297.43 306.984 297.153 307.329 296.873 307.67C295.003 309.95 292.962 312.077 290.768 314.033C290.222 314.52 289.666 314.997 289.102 315.462C288.821 315.694 288.543 315.935 288.249 316.151C288.261 316.143 289.197 315.416 288.643 315.838C288.468 315.971 288.296 316.105 288.121 316.237C286.957 317.118 285.763 317.954 284.537 318.745C281.715 320.561 278.755 322.141 275.685 323.472L276.76 323.008C271.464 325.286 265.898 326.842 260.204 327.636L261.4 327.472C255.71 328.257 249.943 328.268 244.25 327.503L245.446 327.667C240.271 326.957 235.21 325.559 230.391 323.509L231.466 323.973C228.674 322.769 225.982 321.336 223.417 319.689C222.148 318.871 220.911 318.004 219.708 317.086C219.536 316.955 219.366 316.822 219.195 316.69C218.645 316.267 219.589 317.002 219.597 317.008C219.277 316.774 218.97 316.523 218.676 316.257C218.095 315.774 217.522 315.279 216.959 314.773C214.706 312.746 212.602 310.553 210.664 308.21C210.179 307.624 209.704 307.03 209.24 306.427C209.039 306.165 208.672 305.636 209.483 306.751C209.376 306.604 209.265 306.46 209.158 306.314C208.899 305.964 208.644 305.611 208.392 305.255C207.511 304.01 206.674 302.734 205.88 301.428C204.086 298.471 202.521 295.375 201.198 292.17L201.651 293.267C199.486 288.006 198.006 282.477 197.248 276.822L197.408 278.044C196.724 272.831 196.715 267.549 197.379 262.334L197.219 263.556C197.9 258.505 199.23 253.569 201.175 248.873L200.721 249.971C201.945 247.032 203.388 244.193 205.038 241.48C205.864 240.123 206.739 238.798 207.664 237.506C207.874 237.213 208.086 236.921 208.301 236.631C208.496 236.369 209.03 235.716 208.118 236.869C208.207 236.756 208.293 236.64 208.382 236.526C208.889 235.869 209.409 235.223 209.941 234.587C211.955 232.178 214.137 229.921 216.47 227.833C217.06 227.305 217.658 226.789 218.267 226.283C218.543 226.053 218.821 225.826 219.101 225.601C219.213 225.511 219.326 225.423 219.438 225.332C218.24 226.306 219.105 225.598 219.377 225.389C220.63 224.43 221.917 223.519 223.238 222.655C226.173 220.738 229.26 219.076 232.468 217.687L231.393 218.15C236.049 216.153 256.674 211.441 260.425 211.955L259.229 211.791C264.743 212.577 270.132 214.098 275.259 216.315L274.184 215.851C276.782 216.978 279.307 218.274 281.743 219.73C282.96 220.459 284.153 221.227 285.323 222.036C285.876 222.418 286.424 222.809 286.965 223.209C287.236 223.409 287.505 223.611 287.773 223.815C287.922 223.928 288.069 224.043 288.218 224.157C288.841 224.634 287.359 223.466 288.012 223.994C290.2 225.749 292.277 227.643 294.232 229.664C295.192 230.663 296.12 231.693 297.014 232.756C297.473 233.301 297.922 233.854 298.362 234.415C298.58 234.694 299.324 235.702 298.412 234.467C298.635 234.769 298.861 235.069 299.081 235.373C300.976 237.994 302.66 240.769 304.115 243.669C305.191 245.813 308.306 246.612 310.271 245.318C311.28 244.683 312.012 243.676 312.312 242.504C312.613 241.333 312.46 240.089 311.885 239.03Z" fill="#3F3D56"/>
<path d="M259.459 314.033C258.994 314.055 258.535 313.93 258.142 313.676C257.749 313.422 257.442 313.051 257.263 312.613C257.083 312.174 257.04 311.691 257.139 311.226C257.238 310.762 257.474 310.341 257.816 310.018C257.873 309.786 257.914 309.619 257.971 309.387C257.95 309.337 257.93 309.286 257.909 309.236C255.822 304.151 242.501 318.326 241.925 323.105C241.671 325.217 241.778 327.358 242.241 329.433C237.926 319.819 235.685 309.368 235.671 298.792C235.67 296.137 235.814 293.485 236.103 290.848C236.342 288.685 236.673 286.538 237.097 284.407C239.41 272.841 244.375 262.001 251.586 252.776C255.71 253.011 259.324 252.37 259.672 244.206C259.735 242.754 260.789 241.496 261.021 240.066C260.628 240.119 260.228 240.152 259.834 240.178C259.711 240.184 259.582 240.191 259.46 240.198L259.413 240.2C258.981 240.22 258.552 240.111 258.178 239.888C257.804 239.664 257.501 239.335 257.306 238.94C257.112 238.545 257.033 238.101 257.079 237.661C257.125 237.221 257.295 236.804 257.568 236.461C257.738 236.247 257.908 236.034 258.078 235.82C258.337 235.491 258.601 235.168 258.859 234.838C258.889 234.807 258.917 234.774 258.943 234.739C259.24 234.363 259.537 233.994 259.834 233.618C259.292 232.759 258.563 232.04 257.704 231.515C254.729 229.735 250.624 230.968 248.475 233.717C246.32 236.466 245.913 240.323 246.662 243.758C247.398 246.68 248.616 249.453 250.263 251.959C250.102 252.17 249.934 252.374 249.772 252.585C246.823 256.459 244.252 260.619 242.097 265.005C242.707 260.14 235.251 242.572 232.368 238.851C228.905 234.381 221.803 236.331 221.193 241.998C221.187 242.053 221.181 242.107 221.176 242.162C221.604 242.409 222.023 242.671 222.433 242.948C222.949 243.3 223.348 243.802 223.579 244.39C223.81 244.977 223.862 245.622 223.728 246.24C223.594 246.858 223.28 247.42 222.828 247.853C222.375 248.286 221.806 248.569 221.193 248.666L221.131 248.676C215.398 257.036 233.775 278.798 238.375 273.912C236.21 280.179 234.852 286.708 234.335 293.333C234.042 297.242 234.06 301.168 234.387 305.074L234.367 304.936C233.345 296.429 215.811 283.78 210.691 284.834C207.741 285.441 204.836 285.303 205.284 288.342C205.291 288.39 205.299 288.439 205.306 288.487C206.101 288.818 206.874 289.199 207.623 289.628C208.051 289.875 208.47 290.137 208.88 290.414C209.396 290.765 209.795 291.268 210.026 291.855C210.257 292.443 210.309 293.088 210.175 293.706C210.041 294.324 209.727 294.886 209.275 295.319C208.823 295.752 208.253 296.035 207.64 296.131L207.578 296.141C207.532 296.148 207.494 296.155 207.449 296.161C204.839 305.333 224.19 320.134 235.955 315.424H235.961C237.127 320.599 238.816 325.637 241.002 330.455H259.008C259.072 330.251 259.13 330.04 259.188 329.835C257.522 329.942 255.849 329.841 254.206 329.532C255.542 327.858 256.878 326.17 258.214 324.496C258.244 324.464 258.272 324.431 258.298 324.397C258.975 323.54 259.66 322.689 260.337 321.832L260.338 321.831C260.374 319.204 260.079 316.583 259.459 314.033L259.459 314.033ZM238.84 272.6L238.849 272.587L238.84 272.613V272.6ZM234.851 309.326L234.696 308.97C234.703 308.713 234.703 308.456 234.696 308.192C234.696 308.12 234.684 308.047 234.684 307.975C234.742 308.43 234.793 308.885 234.858 309.339L234.851 309.326Z" fill="#3F3D56"/>
<path d="M57.142 275.76C60.7865 275.76 63.741 272.742 63.741 269.02C63.741 265.297 60.7865 262.279 57.142 262.279C53.4974 262.279 50.543 265.297 50.543 269.02C50.543 272.742 53.4974 275.76 57.142 275.76Z" fill="#3F3D56"/>
<path d="M136.329 349.297C139.974 349.297 142.928 346.279 142.928 342.556C142.928 338.833 139.974 335.815 136.329 335.815C132.685 335.815 129.73 338.833 129.73 342.556C129.73 346.279 132.685 349.297 136.329 349.297Z" fill="#3F3D56"/>
<path d="M436.884 349.297C440.529 349.297 443.483 346.279 443.483 342.556C443.483 338.833 440.529 335.815 436.884 335.815C433.24 335.815 430.285 338.833 430.285 342.556C430.285 346.279 433.24 349.297 436.884 349.297Z" fill="#3F3D56"/>
<path d="M453.081 263.505C456.726 263.505 459.68 260.487 459.68 256.764C459.68 253.041 456.726 250.023 453.081 250.023C449.437 250.023 446.482 253.041 446.482 256.764C446.482 260.487 449.437 263.505 453.081 263.505Z" fill="#3F3D56"/>
<path d="M433.884 200.999C437.529 200.999 440.483 197.981 440.483 194.258C440.483 190.535 437.529 187.517 433.884 187.517C430.24 187.517 427.285 190.535 427.285 194.258C427.285 197.981 430.24 200.999 433.884 200.999Z" fill="#3F3D56"/>
<path d="M158.525 256.763C158.522 258.485 157.87 260.14 156.705 261.384C155.54 262.629 153.951 263.368 152.268 263.45C150.584 263.531 148.934 262.948 147.659 261.821C146.384 260.695 145.583 259.111 145.42 257.397C145.256 255.683 145.745 253.971 146.783 252.615C147.821 251.258 149.33 250.361 150.998 250.11C152.665 249.859 154.364 250.272 155.742 251.264C157.119 252.256 158.071 253.751 158.399 255.44C158.484 255.876 158.526 256.319 158.525 256.763Z" fill="#3F3D56"/>
<path d="M290.505 220.608C294.15 220.608 297.104 217.59 297.104 213.867C297.104 210.144 294.15 207.126 290.505 207.126C286.861 207.126 283.906 210.144 283.906 213.867C283.906 217.59 286.861 220.608 290.505 220.608Z" fill="#3F3D56"/>
<path d="M225.115 213.867C225.111 215.589 224.46 217.244 223.295 218.488C222.13 219.733 220.541 220.472 218.857 220.554C217.174 220.635 215.524 220.052 214.249 218.925C212.974 217.799 212.172 216.215 212.009 214.501C211.846 212.787 212.334 211.075 213.373 209.719C214.411 208.362 215.92 207.465 217.588 207.214C219.255 206.963 220.954 207.376 222.331 208.368C223.709 209.36 224.661 210.855 224.989 212.544C225.074 212.98 225.116 213.423 225.115 213.867Z" fill="#3F3D56"/>
<path d="M139.928 194.258C139.924 195.98 139.272 197.634 138.107 198.879C136.942 200.123 135.354 200.863 133.67 200.944C131.986 201.026 130.336 200.443 129.062 199.316C127.787 198.189 126.985 196.605 126.822 194.892C126.659 193.178 127.147 191.466 128.185 190.109C129.224 188.753 130.733 187.856 132.4 187.605C134.068 187.353 135.766 187.766 137.144 188.758C138.522 189.75 139.473 191.246 139.802 192.934C139.886 193.37 139.929 193.814 139.928 194.258Z" fill="#3F3D56"/>
<path d="M359.495 278.212C363.14 278.212 366.094 275.194 366.094 271.471C366.094 267.748 363.14 264.73 359.495 264.73C355.851 264.73 352.896 267.748 352.896 271.471C352.896 275.194 355.851 278.212 359.495 278.212Z" fill="#3F3D56"/>
<path d="M255.712 216.931C261.013 216.931 265.31 212.542 265.31 207.127C265.31 201.712 261.013 197.322 255.712 197.322C250.411 197.322 246.113 201.712 246.113 207.127C246.113 212.542 250.411 216.931 255.712 216.931Z" fill="#3F3D56"/>
<path d="M515.286 349.812L0.714295 350C0.620492 350 0.527605 349.981 0.440942 349.945C0.354279 349.908 0.275541 349.854 0.209212 349.786C0.142883 349.719 0.0902618 349.638 0.0543649 349.55C0.018468 349.461 0 349.366 0 349.271C0 349.175 0.018468 349.08 0.0543649 348.991C0.0902618 348.903 0.142883 348.822 0.209212 348.755C0.275541 348.687 0.354279 348.633 0.440942 348.596C0.527605 348.56 0.620492 348.541 0.714295 348.541L515.286 348.353C515.475 348.353 515.656 348.43 515.789 348.567C515.923 348.704 515.998 348.889 515.998 349.082C515.998 349.275 515.923 349.461 515.789 349.597C515.656 349.734 515.475 349.811 515.286 349.812Z" fill="#CACACA"/>
</g>
<defs>
<clipPath id="clip0_359_5565">
<rect width="516" height="350" fill="white"/>
</clipPath>
</defs>
</svg>
