<svg width="75" height="36" viewBox="0 0 75 36" fill="none" xmlns="http://www.w3.org/2000/svg">
<g style="mix-blend-mode:multiply">
<rect x="0.1" y="5.1" width="74.8" height="25.8" rx="12.9" fill="#E9FFDF"/>
<rect x="0.1" y="5.1" width="74.8" height="25.8" rx="12.9" stroke="#479320" stroke-width="0.2"/>
<path d="M14.2776 20.296H10.7856L10.1856 22H8.75761L11.7456 13.648H13.3296L16.3176 22H14.8776L14.2776 20.296ZM13.8936 19.18L12.5376 15.304L11.1696 19.18H13.8936ZM17.1608 18.688C17.1608 18.008 17.2968 17.412 17.5688 16.9C17.8488 16.38 18.2328 15.98 18.7208 15.7C19.2088 15.42 19.7688 15.28 20.4008 15.28C21.2008 15.28 21.8608 15.472 22.3808 15.856C22.9088 16.232 23.2648 16.772 23.4488 17.476H21.9728C21.8528 17.148 21.6608 16.892 21.3968 16.708C21.1328 16.524 20.8008 16.432 20.4008 16.432C19.8408 16.432 19.3928 16.632 19.0568 17.032C18.7288 17.424 18.5648 17.976 18.5648 18.688C18.5648 19.4 18.7288 19.956 19.0568 20.356C19.3928 20.756 19.8408 20.956 20.4008 20.956C21.1928 20.956 21.7168 20.608 21.9728 19.912H23.4488C23.2568 20.584 22.8968 21.12 22.3688 21.52C21.8408 21.912 21.1848 22.108 20.4008 22.108C19.7688 22.108 19.2088 21.968 18.7208 21.688C18.2328 21.4 17.8488 21 17.5688 20.488C17.2968 19.968 17.1608 19.368 17.1608 18.688ZM24.3561 18.688C24.3561 18.008 24.4921 17.412 24.7641 16.9C25.0441 16.38 25.4281 15.98 25.9161 15.7C26.4041 15.42 26.9641 15.28 27.5961 15.28C28.3961 15.28 29.0561 15.472 29.5761 15.856C30.1041 16.232 30.4601 16.772 30.6441 17.476H29.1681C29.0481 17.148 28.8561 16.892 28.5921 16.708C28.3281 16.524 27.9961 16.432 27.5961 16.432C27.0361 16.432 26.5881 16.632 26.2521 17.032C25.9241 17.424 25.7601 17.976 25.7601 18.688C25.7601 19.4 25.9241 19.956 26.2521 20.356C26.5881 20.756 27.0361 20.956 27.5961 20.956C28.3881 20.956 28.9121 20.608 29.1681 19.912H30.6441C30.4521 20.584 30.0921 21.12 29.5641 21.52C29.0361 21.912 28.3801 22.108 27.5961 22.108C26.9641 22.108 26.4041 21.968 25.9161 21.688C25.4281 21.4 25.0441 21 24.7641 20.488C24.4921 19.968 24.3561 19.368 24.3561 18.688ZM38.0674 18.532C38.0674 18.78 38.0514 19.004 38.0194 19.204H32.9674C33.0074 19.732 33.2034 20.156 33.5554 20.476C33.9074 20.796 34.3394 20.956 34.8514 20.956C35.5874 20.956 36.1074 20.648 36.4114 20.032H37.8874C37.6874 20.64 37.3234 21.14 36.7954 21.532C36.2754 21.916 35.6274 22.108 34.8514 22.108C34.2194 22.108 33.6514 21.968 33.1474 21.688C32.6514 21.4 32.2594 21 31.9714 20.488C31.6914 19.968 31.5514 19.368 31.5514 18.688C31.5514 18.008 31.6874 17.412 31.9594 16.9C32.2394 16.38 32.6274 15.98 33.1234 15.7C33.6274 15.42 34.2034 15.28 34.8514 15.28C35.4754 15.28 36.0314 15.416 36.5194 15.688C37.0074 15.96 37.3874 16.344 37.6594 16.84C37.9314 17.328 38.0674 17.892 38.0674 18.532ZM36.6394 18.1C36.6314 17.596 36.4514 17.192 36.0994 16.888C35.7474 16.584 35.3114 16.432 34.7914 16.432C34.3194 16.432 33.9154 16.584 33.5794 16.888C33.2434 17.184 33.0434 17.588 32.9794 18.1H36.6394ZM40.7817 16.36C41.0137 16.056 41.3297 15.8 41.7297 15.592C42.1297 15.384 42.5817 15.28 43.0857 15.28C43.6617 15.28 44.1857 15.424 44.6577 15.712C45.1377 15.992 45.5137 16.388 45.7857 16.9C46.0577 17.412 46.1937 18 46.1937 18.664C46.1937 19.328 46.0577 19.924 45.7857 20.452C45.5137 20.972 45.1377 21.38 44.6577 21.676C44.1857 21.964 43.6617 22.108 43.0857 22.108C42.5817 22.108 42.1337 22.008 41.7417 21.808C41.3497 21.6 41.0297 21.344 40.7817 21.04V25.144H39.4137V15.388H40.7817V16.36ZM44.8017 18.664C44.8017 18.208 44.7057 17.816 44.5137 17.488C44.3297 17.152 44.0817 16.9 43.7697 16.732C43.4657 16.556 43.1377 16.468 42.7857 16.468C42.4417 16.468 42.1137 16.556 41.8017 16.732C41.4977 16.908 41.2497 17.164 41.0577 17.5C40.8737 17.836 40.7817 18.232 40.7817 18.688C40.7817 19.144 40.8737 19.544 41.0577 19.888C41.2497 20.224 41.4977 20.48 41.8017 20.656C42.1137 20.832 42.4417 20.92 42.7857 20.92C43.1377 20.92 43.4657 20.832 43.7697 20.656C44.0817 20.472 44.3297 20.208 44.5137 19.864C44.7057 19.52 44.8017 19.12 44.8017 18.664ZM49.1425 16.504V20.164C49.1425 20.412 49.1985 20.592 49.3105 20.704C49.4305 20.808 49.6305 20.86 49.9105 20.86H50.7505V22H49.6705C49.0545 22 48.5825 21.856 48.2545 21.568C47.9265 21.28 47.7625 20.812 47.7625 20.164V16.504H46.9825V15.388H47.7625V13.744H49.1425V15.388H50.7505V16.504H49.1425ZM58.0713 18.532C58.0713 18.78 58.0553 19.004 58.0233 19.204H52.9713C53.0113 19.732 53.2073 20.156 53.5593 20.476C53.9113 20.796 54.3433 20.956 54.8553 20.956C55.5913 20.956 56.1113 20.648 56.4153 20.032H57.8913C57.6913 20.64 57.3273 21.14 56.7993 21.532C56.2793 21.916 55.6313 22.108 54.8553 22.108C54.2233 22.108 53.6553 21.968 53.1513 21.688C52.6553 21.4 52.2633 21 51.9753 20.488C51.6953 19.968 51.5553 19.368 51.5553 18.688C51.5553 18.008 51.6913 17.412 51.9633 16.9C52.2433 16.38 52.6313 15.98 53.1273 15.7C53.6313 15.42 54.2073 15.28 54.8553 15.28C55.4793 15.28 56.0353 15.416 56.5233 15.688C57.0113 15.96 57.3913 16.344 57.6633 16.84C57.9353 17.328 58.0713 17.892 58.0713 18.532ZM56.6433 18.1C56.6353 17.596 56.4553 17.192 56.1033 16.888C55.7513 16.584 55.3153 16.432 54.7953 16.432C54.3233 16.432 53.9193 16.584 53.5833 16.888C53.2473 17.184 53.0473 17.588 52.9833 18.1H56.6433ZM58.9616 18.664C58.9616 18 59.0976 17.412 59.3696 16.9C59.6496 16.388 60.0256 15.992 60.4976 15.712C60.9776 15.424 61.5096 15.28 62.0936 15.28C62.5256 15.28 62.9496 15.376 63.3656 15.568C63.7896 15.752 64.1256 16 64.3736 16.312V13.12H65.7536V22H64.3736V21.004C64.1496 21.324 63.8376 21.588 63.4376 21.796C63.0456 22.004 62.5936 22.108 62.0816 22.108C61.5056 22.108 60.9776 21.964 60.4976 21.676C60.0256 21.38 59.6496 20.972 59.3696 20.452C59.0976 19.924 58.9616 19.328 58.9616 18.664ZM64.3736 18.688C64.3736 18.232 64.2776 17.836 64.0856 17.5C63.9016 17.164 63.6576 16.908 63.3536 16.732C63.0496 16.556 62.7216 16.468 62.3696 16.468C62.0176 16.468 61.6896 16.556 61.3856 16.732C61.0816 16.9 60.8336 17.152 60.6416 17.488C60.4576 17.816 60.3656 18.208 60.3656 18.664C60.3656 19.12 60.4576 19.52 60.6416 19.864C60.8336 20.208 61.0816 20.472 61.3856 20.656C61.6976 20.832 62.0256 20.92 62.3696 20.92C62.7216 20.92 63.0496 20.832 63.3536 20.656C63.6576 20.48 63.9016 20.224 64.0856 19.888C64.2776 19.544 64.3736 19.144 64.3736 18.688Z" fill="#479320"/>
</g>
</svg>
