<svg width="66" height="22" viewBox="0 0 66 22" fill="none" xmlns="http://www.w3.org/2000/svg">
<g style="mix-blend-mode:multiply">
<rect width="66" height="22" rx="11" fill="#E9FFDF"/>
<circle cx="10" cy="11" r="3" fill="#479320"/>
<path d="M26.1721 13.296H22.6801L22.0801 15H20.6521L23.6401 6.648H25.2241L28.2121 15H26.7721L26.1721 13.296ZM25.7881 12.18L24.4321 8.304L23.0641 12.18H25.7881ZM29.0553 11.688C29.0553 11.008 29.1913 10.412 29.4633 9.9C29.7433 9.38 30.1273 8.98 30.6153 8.7C31.1033 8.42 31.6633 8.28 32.2953 8.28C33.0953 8.28 33.7553 8.472 34.2753 8.856C34.8033 9.232 35.1593 9.772 35.3433 10.476H33.8673C33.7473 10.148 33.5553 9.892 33.2913 9.708C33.0273 9.524 32.6953 9.432 32.2953 9.432C31.7353 9.432 31.2873 9.632 30.9513 10.032C30.6233 10.424 30.4593 10.976 30.4593 11.688C30.4593 12.4 30.6233 12.956 30.9513 13.356C31.2873 13.756 31.7353 13.956 32.2953 13.956C33.0873 13.956 33.6113 13.608 33.8673 12.912H35.3433C35.1513 13.584 34.7913 14.12 34.2633 14.52C33.7353 14.912 33.0793 15.108 32.2953 15.108C31.6633 15.108 31.1033 14.968 30.6153 14.688C30.1273 14.4 29.7433 14 29.4633 13.488C29.1913 12.968 29.0553 12.368 29.0553 11.688ZM38.3026 9.504V13.164C38.3026 13.412 38.3586 13.592 38.4706 13.704C38.5906 13.808 38.7906 13.86 39.0706 13.86H39.9106V15H38.8306C38.2146 15 37.7426 14.856 37.4146 14.568C37.0866 14.28 36.9226 13.812 36.9226 13.164V9.504H36.1426V8.388H36.9226V6.744H38.3026V8.388H39.9106V9.504H38.3026ZM41.8675 7.512C41.6195 7.512 41.4115 7.428 41.2435 7.26C41.0755 7.092 40.9915 6.884 40.9915 6.636C40.9915 6.388 41.0755 6.18 41.2435 6.012C41.4115 5.844 41.6195 5.76 41.8675 5.76C42.1075 5.76 42.3115 5.844 42.4795 6.012C42.6475 6.18 42.7315 6.388 42.7315 6.636C42.7315 6.884 42.6475 7.092 42.4795 7.26C42.3115 7.428 42.1075 7.512 41.8675 7.512ZM42.5395 8.388V15H41.1715V8.388H42.5395ZM46.8915 13.776L48.7635 8.388H50.2155L47.6955 15H46.0635L43.5555 8.388H45.0195L46.8915 13.776ZM57.3096 11.532C57.3096 11.78 57.2936 12.004 57.2616 12.204H52.2096C52.2496 12.732 52.4456 13.156 52.7976 13.476C53.1496 13.796 53.5816 13.956 54.0936 13.956C54.8296 13.956 55.3496 13.648 55.6536 13.032H57.1296C56.9296 13.64 56.5656 14.14 56.0376 14.532C55.5176 14.916 54.8696 15.108 54.0936 15.108C53.4616 15.108 52.8936 14.968 52.3896 14.688C51.8936 14.4 51.5016 14 51.2136 13.488C50.9336 12.968 50.7936 12.368 50.7936 11.688C50.7936 11.008 50.9296 10.412 51.2016 9.9C51.4816 9.38 51.8696 8.98 52.3656 8.7C52.8696 8.42 53.4456 8.28 54.0936 8.28C54.7176 8.28 55.2736 8.416 55.7616 8.688C56.2496 8.96 56.6296 9.344 56.9016 9.84C57.1736 10.328 57.3096 10.892 57.3096 11.532ZM55.8816 11.1C55.8736 10.596 55.6936 10.192 55.3416 9.888C54.9896 9.584 54.5536 9.432 54.0336 9.432C53.5616 9.432 53.1576 9.584 52.8216 9.888C52.4856 10.184 52.2856 10.588 52.2216 11.1H55.8816Z" fill="#479320"/>
</g>
</svg>
