<svg width="64" height="64" viewBox="0 0 64 64" fill="none" xmlns="http://www.w3.org/2000/svg">
<circle cx="32" cy="32" r="32" fill="#181F24"/>
<path d="M31.5066 19.0308C26.0348 19.0308 21.5852 23.4804 21.5852 28.9522C21.5852 30.7256 22.0592 32.47 22.9588 33.9887C23.7874 35.388 24.945 36.5649 26.3314 37.4162L28.1661 40.8727V44.0165C28.1661 45.8608 29.6654 47.3601 31.5098 47.3601C33.3541 47.3601 34.8535 45.8608 34.8535 44.0165V40.8727L36.6881 37.4162C38.0746 36.5649 39.2322 35.388 40.0608 33.9887C40.9572 32.4668 41.4344 30.7256 41.4344 28.9522C41.428 23.4837 36.9783 19.0308 31.5066 19.0308ZM33.0478 44.0197C33.0478 44.8709 32.3546 45.5609 31.5066 45.5609C30.6553 45.5609 29.9653 44.8677 29.9653 44.0197V41.553H33.051V44.0197H33.0478ZM35.5596 35.9942C35.4145 36.0781 35.2952 36.2038 35.2146 36.3521L33.4089 39.7506H32.4126V31.6768L34.9212 29.1682C35.2726 28.8168 35.2726 28.2461 34.9212 27.8946C34.5697 27.5431 33.999 27.5431 33.6475 27.8946L31.513 30.0291L29.3785 27.8946C29.027 27.5431 28.4563 27.5431 28.1048 27.8946C27.7534 28.2461 27.7534 28.8168 28.1048 29.1682L30.6134 31.6768V39.7538H29.6074L27.8018 36.3554C27.7211 36.207 27.6018 36.0813 27.4568 35.9974C24.945 34.5497 23.3876 31.8509 23.3876 28.9554C23.3876 24.4768 27.0311 20.8332 31.5098 20.8332C35.9884 20.8332 39.632 24.4768 39.632 28.9554C39.6288 31.8477 38.0682 34.5465 35.5596 35.9942ZM20.9016 19.9755C21.0757 20.2367 21.3595 20.3754 21.6529 20.3754C21.8302 20.3754 22.0043 20.3238 22.1494 20.2238C22.5622 19.9497 22.675 19.3887 22.4009 18.976L21.1144 17.0414C20.8403 16.6286 20.2793 16.5158 19.8666 16.7899C19.4539 17.0639 19.341 17.625 19.6151 18.0377L20.9016 19.9755ZM20.031 23.9351C20.1632 24.0092 20.3148 24.0479 20.4663 24.0479C20.7823 24.0479 21.0886 23.8803 21.2531 23.5836C21.4949 23.1483 21.3369 22.6002 20.9048 22.3583L18.6187 21.0912C18.1835 20.8493 17.6353 21.0073 17.3935 21.4394C17.1517 21.8747 17.3096 22.4228 17.7417 22.6647L20.031 23.9351ZM40.9959 20.227C41.1442 20.327 41.3151 20.3786 41.4924 20.3786C41.7826 20.3786 42.0696 20.2367 42.2437 19.9788L43.5303 18.0441C43.8043 17.6314 43.6947 17.0704 43.2787 16.7963C42.866 16.5222 42.305 16.6319 42.0309 17.0478L40.7444 18.9824C40.4703 19.3951 40.5832 19.953 40.9959 20.227ZM41.889 23.5836C42.0535 23.8803 42.3598 24.0479 42.6758 24.0479C42.8241 24.0479 42.9724 24.0125 43.1111 23.9351L45.3972 22.6647C45.8325 22.4228 45.9872 21.8747 45.7454 21.4394C45.5036 21.0041 44.9554 20.8493 44.5201 21.0879L42.2341 22.3583C41.802 22.6002 41.6472 23.1483 41.889 23.5836ZM22.488 38.5157C22.0753 38.2416 21.5142 38.3512 21.2402 38.7672L19.9536 40.7018C19.6796 41.1145 19.7892 41.6756 20.2051 41.9496C20.3535 42.0496 20.5243 42.1012 20.7017 42.1012C20.9919 42.1012 21.2789 41.9593 21.453 41.7014L22.7395 39.7667C23.0136 39.3508 22.9007 38.7898 22.488 38.5157ZM21.5948 35.1591C21.353 34.7238 20.8049 34.569 20.3696 34.8077L18.0835 36.0781C17.6482 36.3199 17.4934 36.868 17.7353 37.3033C17.8997 37.6 18.206 37.7676 18.522 37.7676C18.6703 37.7676 18.8187 37.7322 18.9573 37.6548L21.2434 36.3844C21.6819 36.1425 21.8367 35.5944 21.5948 35.1591ZM42.5823 38.764C42.3082 38.3512 41.7472 38.2384 41.3345 38.5125C40.9217 38.7865 40.8089 39.3476 41.083 39.7603L42.3695 41.6949C42.5436 41.9561 42.8273 42.0947 43.1208 42.0947C43.2981 42.0947 43.4722 42.0431 43.6173 41.9432C44.03 41.6691 44.1429 41.1081 43.8688 40.6954L42.5823 38.764ZM45.7389 36.0781L43.4529 34.8077C43.0176 34.5658 42.4694 34.7238 42.2276 35.1591C41.9858 35.5944 42.1438 36.1425 42.5758 36.3844L44.8619 37.6548C44.9941 37.7289 45.1457 37.7676 45.2972 37.7676C45.6132 37.7676 45.9195 37.6 46.084 37.3033C46.329 36.868 46.171 36.3199 45.7389 36.0781Z" fill="#F5C200"/>
</svg>
