<svg width="69" height="26" viewBox="0 0 69 26" fill="none" xmlns="http://www.w3.org/2000/svg">
<rect x="0.1" y="0.1" width="68.8" height="25.8" rx="12.9" fill="#FCE7E7"/>
<rect x="0.1" y="0.1" width="68.8" height="25.8" rx="12.9" stroke="#F25555" stroke-width="0.2"/>
<path d="M11.7392 8.66C12.6272 8.66 13.4032 8.832 14.0672 9.176C14.7392 9.512 15.2552 10 15.6152 10.64C15.9832 11.272 16.1672 12.012 16.1672 12.86C16.1672 13.708 15.9832 14.444 15.6152 15.068C15.2552 15.692 14.7392 16.172 14.0672 16.508C13.4032 16.836 12.6272 17 11.7392 17H9.01523V8.66H11.7392ZM11.7392 15.884C12.7152 15.884 13.4632 15.62 13.9832 15.092C14.5032 14.564 14.7632 13.82 14.7632 12.86C14.7632 11.892 14.5032 11.136 13.9832 10.592C13.4632 10.048 12.7152 9.776 11.7392 9.776H10.3832V15.884H11.7392ZM23.583 13.532C23.583 13.78 23.567 14.004 23.535 14.204H18.483C18.523 14.732 18.719 15.156 19.071 15.476C19.423 15.796 19.855 15.956 20.367 15.956C21.103 15.956 21.623 15.648 21.927 15.032H23.403C23.203 15.64 22.839 16.14 22.311 16.532C21.791 16.916 21.143 17.108 20.367 17.108C19.735 17.108 19.167 16.968 18.663 16.688C18.167 16.4 17.775 16 17.487 15.488C17.207 14.968 17.067 14.368 17.067 13.688C17.067 13.008 17.203 12.412 17.475 11.9C17.755 11.38 18.143 10.98 18.639 10.7C19.143 10.42 19.719 10.28 20.367 10.28C20.991 10.28 21.547 10.416 22.035 10.688C22.523 10.96 22.903 11.344 23.175 11.84C23.447 12.328 23.583 12.892 23.583 13.532ZM22.155 13.1C22.147 12.596 21.967 12.192 21.615 11.888C21.263 11.584 20.827 11.432 20.307 11.432C19.835 11.432 19.431 11.584 19.095 11.888C18.759 12.184 18.559 12.588 18.495 13.1H22.155ZM24.4733 13.688C24.4733 13.008 24.6093 12.412 24.8813 11.9C25.1613 11.38 25.5453 10.98 26.0333 10.7C26.5213 10.42 27.0813 10.28 27.7133 10.28C28.5133 10.28 29.1733 10.472 29.6933 10.856C30.2213 11.232 30.5773 11.772 30.7613 12.476H29.2853C29.1653 12.148 28.9733 11.892 28.7093 11.708C28.4453 11.524 28.1133 11.432 27.7133 11.432C27.1533 11.432 26.7053 11.632 26.3693 12.032C26.0413 12.424 25.8773 12.976 25.8773 13.688C25.8773 14.4 26.0413 14.956 26.3693 15.356C26.7053 15.756 27.1533 15.956 27.7133 15.956C28.5053 15.956 29.0293 15.608 29.2853 14.912H30.7613C30.5693 15.584 30.2093 16.12 29.6813 16.52C29.1533 16.912 28.4973 17.108 27.7133 17.108C27.0813 17.108 26.5213 16.968 26.0333 16.688C25.5453 16.4 25.1613 16 24.8813 15.488C24.6093 14.968 24.4733 14.368 24.4733 13.688ZM33.4926 8.12V17H32.1246V8.12H33.4926ZM35.9847 9.512C35.7367 9.512 35.5287 9.428 35.3607 9.26C35.1927 9.092 35.1087 8.884 35.1087 8.636C35.1087 8.388 35.1927 8.18 35.3607 8.012C35.5287 7.844 35.7367 7.76 35.9847 7.76C36.2247 7.76 36.4287 7.844 36.5967 8.012C36.7647 8.18 36.8487 8.388 36.8487 8.636C36.8487 8.884 36.7647 9.092 36.5967 9.26C36.4287 9.428 36.2247 9.512 35.9847 9.512ZM36.6567 10.388V17H35.2887V10.388H36.6567ZM41.7887 10.28C42.3087 10.28 42.7727 10.388 43.1807 10.604C43.5967 10.82 43.9207 11.14 44.1527 11.564C44.3847 11.988 44.5007 12.5 44.5007 13.1V17H43.1447V13.304C43.1447 12.712 42.9967 12.26 42.7007 11.948C42.4047 11.628 42.0007 11.468 41.4887 11.468C40.9767 11.468 40.5687 11.628 40.2647 11.948C39.9687 12.26 39.8207 12.712 39.8207 13.304V17H38.4527V10.388H39.8207V11.144C40.0447 10.872 40.3287 10.66 40.6727 10.508C41.0247 10.356 41.3967 10.28 41.7887 10.28ZM52.3057 13.532C52.3057 13.78 52.2897 14.004 52.2577 14.204H47.2057C47.2457 14.732 47.4417 15.156 47.7937 15.476C48.1457 15.796 48.5777 15.956 49.0897 15.956C49.8257 15.956 50.3457 15.648 50.6497 15.032H52.1257C51.9257 15.64 51.5617 16.14 51.0337 16.532C50.5137 16.916 49.8657 17.108 49.0897 17.108C48.4577 17.108 47.8897 16.968 47.3857 16.688C46.8897 16.4 46.4977 16 46.2097 15.488C45.9297 14.968 45.7897 14.368 45.7897 13.688C45.7897 13.008 45.9257 12.412 46.1977 11.9C46.4777 11.38 46.8657 10.98 47.3617 10.7C47.8657 10.42 48.4417 10.28 49.0897 10.28C49.7137 10.28 50.2697 10.416 50.7577 10.688C51.2457 10.96 51.6257 11.344 51.8977 11.84C52.1697 12.328 52.3057 12.892 52.3057 13.532ZM50.8777 13.1C50.8697 12.596 50.6897 12.192 50.3377 11.888C49.9857 11.584 49.5497 11.432 49.0297 11.432C48.5577 11.432 48.1537 11.584 47.8177 11.888C47.4817 12.184 47.2817 12.588 47.2177 13.1H50.8777ZM53.196 13.664C53.196 13 53.332 12.412 53.604 11.9C53.884 11.388 54.26 10.992 54.732 10.712C55.212 10.424 55.744 10.28 56.328 10.28C56.76 10.28 57.184 10.376 57.6 10.568C58.024 10.752 58.36 11 58.608 11.312V8.12H59.988V17H58.608V16.004C58.384 16.324 58.072 16.588 57.672 16.796C57.28 17.004 56.828 17.108 56.316 17.108C55.74 17.108 55.212 16.964 54.732 16.676C54.26 16.38 53.884 15.972 53.604 15.452C53.332 14.924 53.196 14.328 53.196 13.664ZM58.608 13.688C58.608 13.232 58.512 12.836 58.32 12.5C58.136 12.164 57.892 11.908 57.588 11.732C57.284 11.556 56.956 11.468 56.604 11.468C56.252 11.468 55.924 11.556 55.62 11.732C55.316 11.9 55.068 12.152 54.876 12.488C54.692 12.816 54.6 13.208 54.6 13.664C54.6 14.12 54.692 14.52 54.876 14.864C55.068 15.208 55.316 15.472 55.62 15.656C55.932 15.832 56.26 15.92 56.604 15.92C56.956 15.92 57.284 15.832 57.588 15.656C57.892 15.48 58.136 15.224 58.32 14.888C58.512 14.544 58.608 14.144 58.608 13.688Z" fill="#F25555"/>
</svg>
