<svg width="24" height="22" viewBox="0 0 24 22" fill="none" xmlns="http://www.w3.org/2000/svg">
<path d="M5 10.5C5 10.1022 5.15804 9.72064 5.43934 9.43934C5.72064 9.15804 6.10218 9 6.5 9H17.5C17.8978 9 18.2794 9.15804 18.5607 9.43934C18.842 9.72064 19 10.1022 19 10.5C19 10.8978 18.842 11.2794 18.5607 11.5607C18.2794 11.842 17.8978 12 17.5 12H6.5C6.10218 12 5.72064 11.842 5.43934 11.5607C5.15804 11.2794 5 10.8978 5 10.5ZM6.5 17H13.5C13.8978 17 14.2794 16.842 14.5607 16.5607C14.842 16.2794 15 15.8978 15 15.5C15 15.1022 14.842 14.7206 14.5607 14.4393C14.2794 14.158 13.8978 14 13.5 14H6.5C6.10218 14 5.72064 14.158 5.43934 14.4393C5.15804 14.7206 5 15.1022 5 15.5C5 15.8978 5.15804 16.2794 5.43934 16.5607C5.72064 16.842 6.10218 17 6.5 17ZM24 5.5V16.5C23.9984 17.9582 23.4184 19.3562 22.3873 20.3873C21.3562 21.4184 19.9582 21.9984 18.5 22H5.5C4.0418 21.9984 2.64377 21.4184 1.61267 20.3873C0.581561 19.3562 0.00158817 17.9582 0 16.5L0 5.5C0.00158817 4.0418 0.581561 2.64377 1.61267 1.61267C2.64377 0.581561 4.0418 0.00158817 5.5 0H18.5C19.9582 0.00158817 21.3562 0.581561 22.3873 1.61267C23.4184 2.64377 23.9984 4.0418 24 5.5ZM8 3.5C8 3.79667 8.08797 4.08668 8.2528 4.33336C8.41762 4.58003 8.65189 4.77229 8.92597 4.88582C9.20006 4.99935 9.50166 5.02906 9.79264 4.97118C10.0836 4.9133 10.3509 4.77044 10.5607 4.56066C10.7704 4.35088 10.9133 4.08361 10.9712 3.79264C11.0291 3.50166 10.9994 3.20006 10.8858 2.92597C10.7723 2.65189 10.58 2.41762 10.3334 2.2528C10.0867 2.08797 9.79667 2 9.5 2C9.10218 2 8.72064 2.15804 8.43934 2.43934C8.15804 2.72064 8 3.10218 8 3.5ZM3 3.5C3 3.79667 3.08797 4.08668 3.2528 4.33336C3.41762 4.58003 3.65189 4.77229 3.92597 4.88582C4.20006 4.99935 4.50166 5.02906 4.79264 4.97118C5.08361 4.9133 5.35088 4.77044 5.56066 4.56066C5.77044 4.35088 5.9133 4.08361 5.97118 3.79264C6.02906 3.50166 5.99935 3.20006 5.88582 2.92597C5.77229 2.65189 5.58003 2.41762 5.33336 2.2528C5.08668 2.08797 4.79667 2 4.5 2C4.10218 2 3.72064 2.15804 3.43934 2.43934C3.15804 2.72064 3 3.10218 3 3.5ZM21 7H3V16.5C3 17.163 3.26339 17.7989 3.73223 18.2678C4.20107 18.7366 4.83696 19 5.5 19H18.5C19.163 19 19.7989 18.7366 20.2678 18.2678C20.7366 17.7989 21 17.163 21 16.5V7Z" fill="white"/>
</svg>
