<svg width="21" height="20" viewBox="0 0 21 20" fill="none" xmlns="http://www.w3.org/2000/svg">
<g clip-path="url(#clip0_79_2684)">
<path d="M9.4003 20C7.37793 20.0026 5.43515 19.2121 3.98915 17.7982C0.963452 14.654 1.02253 9.66304 4.12184 6.59133L8.98381 1.73018C10.9704 -0.313519 14.1597 -0.579408 16.4573 1.10717C18.905 2.98638 19.3658 6.49402 17.4866 8.94174C17.3398 9.13292 17.1809 9.31441 17.0107 9.48505L11.9228 14.5729C11.3502 15.1716 10.5903 15.5567 9.76892 15.6645C8.65557 15.7865 7.5534 15.3536 6.82068 14.5065C5.69734 13.0675 5.81743 11.0181 7.10114 9.72012L10.9798 5.84483C11.4717 5.35312 12.269 5.35312 12.7608 5.84483C13.2526 6.3367 13.2526 7.13401 12.7608 7.62587L8.76295 11.6246C8.41118 11.9766 8.41137 12.5472 8.76338 12.8989C9.1154 13.2506 9.68591 13.2505 10.0376 12.8985L15.1717 7.76529C16.2257 6.74043 16.4206 5.11861 15.6394 3.8732C14.7169 2.45224 12.8172 2.04811 11.3963 2.97059C11.2183 3.08608 11.0529 3.21971 10.9025 3.36937L5.83569 8.44043C3.92055 10.3 3.67174 13.2878 5.25294 15.4386C7.01167 17.7292 10.2943 18.1603 12.5848 16.4015C12.7638 16.2641 12.9336 16.1153 13.0934 15.9559L17.0921 11.958C17.584 11.4663 18.3813 11.4663 18.8731 11.958C19.3649 12.4499 19.3649 13.2472 18.8731 13.739L14.8744 17.7369C13.4235 19.1896 11.4534 20.0041 9.4003 20Z" fill="#5C5B58"/>
</g>
<defs>
<clipPath id="clip0_79_2684">
<rect width="20" height="20" fill="white" transform="translate(0.5)"/>
</clipPath>
</defs>
</svg>
