<svg width="24" height="24" viewBox="0 0 24 24" fill="none" xmlns="http://www.w3.org/2000/svg">
<g clip-path="url(#clip0_132_2870)">
<path d="M14.1209 12.0002L23.5605 2.56161C24.1465 1.97565 24.1465 1.02563 23.5605 0.439714C22.9745 -0.146246 22.0245 -0.146246 21.4386 0.439714L12 9.8793L2.56137 0.439714C1.97541 -0.146246 1.02538 -0.146246 0.43947 0.439714C-0.146443 1.02567 -0.14649 1.9757 0.43947 2.56161L9.87905 12.0002L0.43947 21.4389C-0.14649 22.0248 -0.14649 22.9748 0.43947 23.5608C1.02543 24.1467 1.97545 24.1467 2.56137 23.5608L12 14.1211L21.4386 23.5608C22.0245 24.1467 22.9745 24.1467 23.5605 23.5608C24.1464 22.9748 24.1464 22.0248 23.5605 21.4389L14.1209 12.0002Z" fill="#131311"/>
</g>
<defs>
<clipPath id="clip0_132_2870">
<rect width="24" height="24" fill="white"/>
</clipPath>
</defs>
</svg>
