<svg width="19" height="18" viewBox="0 0 19 18" fill="none" xmlns="http://www.w3.org/2000/svg">
<g clip-path="url(#clip0_7_121)">
<path d="M8 8.99953C8 9.19844 7.92098 9.38921 7.78033 9.52986C7.63968 9.67051 7.44891 9.74953 7.25 9.74953H3.55175C3.73335 11.199 4.43799 12.5324 5.53329 13.499C6.62858 14.4656 8.03916 14.9991 9.5 14.9991C10.9608 14.9991 12.3714 14.4656 13.4667 13.499C14.562 12.5324 15.2667 11.199 15.4482 9.74953H11.75C11.5511 9.74953 11.3603 9.67051 11.2197 9.52986C11.079 9.38921 11 9.19844 11 8.99953C11 8.80062 11.079 8.60985 11.2197 8.4692C11.3603 8.32855 11.5511 8.24953 11.75 8.24953H15.5V6.74953H11.75C11.5511 6.74953 11.3603 6.67051 11.2197 6.52986C11.079 6.38921 11 6.19844 11 5.99953C11 5.80062 11.079 5.60985 11.2197 5.4692C11.3603 5.32855 11.5511 5.24953 11.75 5.24953H15.4482C15.2667 3.80002 14.562 2.4667 13.4667 1.50006C12.3714 0.533425 10.9608 0 9.5 0C8.03916 0 6.62858 0.533425 5.53329 1.50006C4.43799 2.4667 3.73335 3.80002 3.55175 5.24953H7.25C7.44891 5.24953 7.63968 5.32855 7.78033 5.4692C7.92098 5.60985 8 5.80062 8 5.99953C8 6.19844 7.92098 6.38921 7.78033 6.52986C7.63968 6.67051 7.44891 6.74953 7.25 6.74953H3.5V8.24953H7.25C7.44891 8.24953 7.63968 8.32855 7.78033 8.4692C7.92098 8.60985 8 8.80062 8 8.99953Z" fill="#181F24"/>
<path d="M17.75 9C17.5511 9 17.3603 9.07902 17.2197 9.21967C17.079 9.36032 17 9.55109 17 9.75C16.998 11.5396 16.2862 13.2553 15.0208 14.5208C13.7553 15.7862 12.0396 16.498 10.25 16.5H8.75C6.96046 16.4978 5.24484 15.786 3.97944 14.5206C2.71404 13.2552 2.00218 11.5395 2 9.75C2 9.55109 1.92098 9.36032 1.78033 9.21967C1.63968 9.07902 1.44891 9 1.25 9C1.05109 9 0.860322 9.07902 0.71967 9.21967C0.579018 9.36032 0.5 9.55109 0.5 9.75C0.50258 11.9372 1.3726 14.0342 2.91922 15.5808C4.46584 17.1274 6.56276 17.9974 8.75 18H10.25C12.4372 17.9974 14.5342 17.1274 16.0808 15.5808C17.6274 14.0342 18.4974 11.9372 18.5 9.75C18.5 9.55109 18.421 9.36032 18.2803 9.21967C18.1397 9.07902 17.9489 9 17.75 9Z" fill="#181F24"/>
</g>
<defs>
<clipPath id="clip0_7_121">
<rect width="18" height="18" fill="white" transform="translate(0.5)"/>
</clipPath>
</defs>
</svg>
