<svg width="21" height="20" viewBox="0 0 21 20" fill="none" xmlns="http://www.w3.org/2000/svg">
<path fill-rule="evenodd" clip-rule="evenodd" d="M13.3654 5.00016C13.2548 4.79837 13.0015 4.72445 12.7997 4.83506C12.5979 4.94566 12.524 5.19892 12.6346 5.40071C13.3147 6.64148 13.9322 7.57483 14.6896 8.36143C15.1996 8.89113 15.7655 9.34647 16.443 9.78377L2.16667 9.78377C1.93655 9.78377 1.75 9.97032 1.75 10.2004C1.75 10.4306 1.93655 10.6171 2.16667 10.6171L16.4702 10.6171C15.8039 11.0522 15.2413 11.5033 14.729 12.0302C13.9693 12.8115 13.3363 13.7427 12.6361 14.9974C12.524 15.1984 12.596 15.4522 12.797 15.5643C12.9979 15.6764 13.2517 15.6044 13.3639 15.4035C14.0467 14.1798 14.6384 13.3187 15.3264 12.6111C16.0127 11.9053 16.8111 11.3356 17.9267 10.7155C17.9787 10.6866 18.024 10.6517 18.0626 10.6124C18.263 10.5823 18.4167 10.4093 18.4167 10.2004C18.4167 9.98987 18.2605 9.8158 18.0576 9.78773C18.0187 9.74894 17.9731 9.71465 17.9209 9.68637C16.7775 9.06752 15.9718 8.49163 15.2899 7.78344C14.6059 7.07299 14.0297 6.21209 13.3654 5.00016Z" fill="#030303"/>
</svg>
