<svg width="77" height="22" viewBox="0 0 77 22" fill="none" xmlns="http://www.w3.org/2000/svg">
<g style="mix-blend-mode:multiply">
<g style="mix-blend-mode:multiply">
<rect width="77" height="22" rx="11" fill="#F2F4F7"/>
<circle cx="10" cy="11" r="3" fill="#5C5B58"/>
<path d="M22.6508 6.66V15H21.2828V6.66H22.6508ZM27.7829 8.28C28.3029 8.28 28.7669 8.388 29.1749 8.604C29.5909 8.82 29.9149 9.14 30.1469 9.564C30.3789 9.988 30.4949 10.5 30.4949 11.1V15H29.1389V11.304C29.1389 10.712 28.9909 10.26 28.6949 9.948C28.3989 9.628 27.9949 9.468 27.4829 9.468C26.9709 9.468 26.5629 9.628 26.2589 9.948C25.9629 10.26 25.8149 10.712 25.8149 11.304V15H24.4469V8.388H25.8149V9.144C26.0389 8.872 26.3229 8.66 26.6669 8.508C27.0189 8.356 27.3909 8.28 27.7829 8.28ZM31.7838 11.664C31.7838 11 31.9198 10.412 32.1918 9.9C32.4718 9.388 32.8478 8.992 33.3198 8.712C33.7998 8.424 34.3278 8.28 34.9038 8.28C35.4238 8.28 35.8758 8.384 36.2598 8.592C36.6518 8.792 36.9638 9.044 37.1958 9.348V8.388H38.5758V15H37.1958V14.016C36.9638 14.328 36.6478 14.588 36.2478 14.796C35.8478 15.004 35.3918 15.108 34.8798 15.108C34.3118 15.108 33.7918 14.964 33.3198 14.676C32.8478 14.38 32.4718 13.972 32.1918 13.452C31.9198 12.924 31.7838 12.328 31.7838 11.664ZM37.1958 11.688C37.1958 11.232 37.0998 10.836 36.9078 10.5C36.7238 10.164 36.4798 9.908 36.1758 9.732C35.8718 9.556 35.5438 9.468 35.1918 9.468C34.8398 9.468 34.5118 9.556 34.2078 9.732C33.9038 9.9 33.6558 10.152 33.4638 10.488C33.2798 10.816 33.1878 11.208 33.1878 11.664C33.1878 12.12 33.2798 12.52 33.4638 12.864C33.6558 13.208 33.9038 13.472 34.2078 13.656C34.5198 13.832 34.8478 13.92 35.1918 13.92C35.5438 13.92 35.8718 13.832 36.1758 13.656C36.4798 13.48 36.7238 13.224 36.9078 12.888C37.0998 12.544 37.1958 12.144 37.1958 11.688ZM39.9167 11.688C39.9167 11.008 40.0527 10.412 40.3247 9.9C40.6047 9.38 40.9887 8.98 41.4767 8.7C41.9647 8.42 42.5247 8.28 43.1567 8.28C43.9567 8.28 44.6167 8.472 45.1367 8.856C45.6647 9.232 46.0207 9.772 46.2047 10.476H44.7287C44.6087 10.148 44.4167 9.892 44.1527 9.708C43.8887 9.524 43.5567 9.432 43.1567 9.432C42.5967 9.432 42.1487 9.632 41.8127 10.032C41.4847 10.424 41.3207 10.976 41.3207 11.688C41.3207 12.4 41.4847 12.956 41.8127 13.356C42.1487 13.756 42.5967 13.956 43.1567 13.956C43.9487 13.956 44.4727 13.608 44.7287 12.912H46.2047C46.0127 13.584 45.6527 14.12 45.1247 14.52C44.5967 14.912 43.9407 15.108 43.1567 15.108C42.5247 15.108 41.9647 14.968 41.4767 14.688C40.9887 14.4 40.6047 14 40.3247 13.488C40.0527 12.968 39.9167 12.368 39.9167 11.688ZM49.164 9.504V13.164C49.164 13.412 49.22 13.592 49.332 13.704C49.452 13.808 49.652 13.86 49.932 13.86H50.772V15H49.692C49.076 15 48.604 14.856 48.276 14.568C47.948 14.28 47.784 13.812 47.784 13.164V9.504H47.004V8.388H47.784V6.744H49.164V8.388H50.772V9.504H49.164ZM52.7288 7.512C52.4808 7.512 52.2728 7.428 52.1048 7.26C51.9368 7.092 51.8528 6.884 51.8528 6.636C51.8528 6.388 51.9368 6.18 52.1048 6.012C52.2728 5.844 52.4808 5.76 52.7288 5.76C52.9688 5.76 53.1728 5.844 53.3408 6.012C53.5088 6.18 53.5928 6.388 53.5928 6.636C53.5928 6.884 53.5088 7.092 53.3408 7.26C53.1728 7.428 52.9688 7.512 52.7288 7.512ZM53.4008 8.388V15H52.0328V8.388H53.4008ZM57.7529 13.776L59.6249 8.388H61.0769L58.5569 15H56.9249L54.4169 8.388H55.8809L57.7529 13.776ZM68.1709 11.532C68.1709 11.78 68.1549 12.004 68.1229 12.204H63.0709C63.1109 12.732 63.3069 13.156 63.6589 13.476C64.0109 13.796 64.4429 13.956 64.9549 13.956C65.6909 13.956 66.2109 13.648 66.5149 13.032H67.9909C67.7909 13.64 67.4269 14.14 66.8989 14.532C66.3789 14.916 65.7309 15.108 64.9549 15.108C64.3229 15.108 63.7549 14.968 63.2509 14.688C62.7549 14.4 62.3629 14 62.0749 13.488C61.7949 12.968 61.6549 12.368 61.6549 11.688C61.6549 11.008 61.7909 10.412 62.0629 9.9C62.3429 9.38 62.7309 8.98 63.2269 8.7C63.7309 8.42 64.3069 8.28 64.9549 8.28C65.5789 8.28 66.1349 8.416 66.6229 8.688C67.1109 8.96 67.4909 9.344 67.7629 9.84C68.0349 10.328 68.1709 10.892 68.1709 11.532ZM66.7429 11.1C66.7349 10.596 66.5549 10.192 66.2029 9.888C65.8509 9.584 65.4149 9.432 64.8949 9.432C64.4229 9.432 64.0189 9.584 63.6829 9.888C63.3469 10.184 63.1469 10.588 63.0829 11.1H66.7429Z" fill="#7C7A67"/>
</g>
</g>
</svg>
