<svg width="36" height="36" viewBox="0 0 36 36" fill="none" xmlns="http://www.w3.org/2000/svg">
<circle cx="18" cy="18" r="18" fill="#F5C200"/>
<g clip-path="url(#clip0_217_3163)">
<path d="M14.9995 25.1998C14.9205 25.2003 14.8422 25.1851 14.7691 25.1553C14.696 25.1254 14.6295 25.0814 14.5735 25.0258C14.5172 24.97 14.4726 24.9037 14.4421 24.8305C14.4117 24.7574 14.396 24.679 14.396 24.5998C14.396 24.5206 14.4117 24.4422 14.4421 24.3691C14.4726 24.2959 14.5172 24.2296 14.5735 24.1738L19.4755 19.2718C19.8126 18.9343 20.0019 18.4768 20.0019 17.9998C20.0019 17.5228 19.8126 17.0653 19.4755 16.7278L14.5735 11.8258C14.4605 11.7128 14.397 11.5596 14.397 11.3998C14.397 11.24 14.4605 11.0868 14.5735 10.9738C14.6865 10.8608 14.8397 10.7974 14.9995 10.7974C15.1593 10.7974 15.3125 10.8608 15.4255 10.9738L20.3275 15.8758C20.6069 16.1545 20.8285 16.4855 20.9797 16.85C21.131 17.2145 21.2088 17.6052 21.2088 17.9998C21.2088 18.3944 21.131 18.7851 20.9797 19.1496C20.8285 19.5141 20.6069 19.8451 20.3275 20.1238L15.4255 25.0258C15.3694 25.0814 15.3029 25.1254 15.2298 25.1553C15.1567 25.1851 15.0784 25.2003 14.9995 25.1998Z" fill="#131311"/>
</g>
<defs>
<clipPath id="clip0_217_3163">
<rect width="14.4" height="14.4" fill="white" transform="translate(10.7998 10.7998)"/>
</clipPath>
</defs>
</svg>
