<svg width="81" height="22" viewBox="0 0 81 22" fill="none" xmlns="http://www.w3.org/2000/svg">
<g style="mix-blend-mode:multiply">
<rect width="81" height="22" rx="11" fill="#FFE299"/>
<circle cx="10" cy="11" r="3" fill="#FFBF19"/>
<path d="M25.1649 15.084C24.3889 15.084 23.6729 14.904 23.0169 14.544C22.3689 14.176 21.8529 13.668 21.4689 13.02C21.0929 12.364 20.9049 11.628 20.9049 10.812C20.9049 9.996 21.0929 9.264 21.4689 8.616C21.8529 7.968 22.3689 7.464 23.0169 7.104C23.6729 6.736 24.3889 6.552 25.1649 6.552C25.9489 6.552 26.6649 6.736 27.3129 7.104C27.9689 7.464 28.4849 7.968 28.8609 8.616C29.2369 9.264 29.4249 9.996 29.4249 10.812C29.4249 11.628 29.2369 12.364 28.8609 13.02C28.4849 13.668 27.9689 14.176 27.3129 14.544C26.6649 14.904 25.9489 15.084 25.1649 15.084ZM25.1649 13.896C25.7169 13.896 26.2089 13.772 26.6409 13.524C27.0729 13.268 27.4089 12.908 27.6489 12.444C27.8969 11.972 28.0209 11.428 28.0209 10.812C28.0209 10.196 27.8969 9.656 27.6489 9.192C27.4089 8.728 27.0729 8.372 26.6409 8.124C26.2089 7.876 25.7169 7.752 25.1649 7.752C24.6129 7.752 24.1209 7.876 23.6889 8.124C23.2569 8.372 22.9169 8.728 22.6689 9.192C22.4289 9.656 22.3089 10.196 22.3089 10.812C22.3089 11.428 22.4289 11.972 22.6689 12.444C22.9169 12.908 23.2569 13.268 23.6889 13.524C24.1209 13.772 24.6129 13.896 25.1649 13.896ZM34.1071 8.28C34.6271 8.28 35.0911 8.388 35.4991 8.604C35.9151 8.82 36.2391 9.14 36.4711 9.564C36.7031 9.988 36.8191 10.5 36.8191 11.1V15H35.4631V11.304C35.4631 10.712 35.3151 10.26 35.0191 9.948C34.7231 9.628 34.3191 9.468 33.8071 9.468C33.2951 9.468 32.8871 9.628 32.5831 9.948C32.2871 10.26 32.1391 10.712 32.1391 11.304V15H30.7711V8.388H32.1391V9.144C32.3631 8.872 32.6471 8.66 32.9911 8.508C33.3431 8.356 33.7151 8.28 34.1071 8.28ZM41.2281 8.28C41.7401 8.28 42.1921 8.384 42.5841 8.592C42.9841 8.792 43.2961 9.044 43.5201 9.348V8.388H44.9001V15.108C44.9001 15.716 44.7721 16.256 44.5161 16.728C44.2601 17.208 43.8881 17.584 43.4001 17.856C42.9201 18.128 42.3441 18.264 41.6721 18.264C40.7761 18.264 40.0321 18.052 39.4401 17.628C38.8481 17.212 38.5121 16.644 38.4321 15.924H39.7881C39.8921 16.268 40.1121 16.544 40.4481 16.752C40.7921 16.968 41.2001 17.076 41.6721 17.076C42.2241 17.076 42.6681 16.908 43.0041 16.572C43.3481 16.236 43.5201 15.748 43.5201 15.108V14.004C43.2881 14.316 42.9721 14.58 42.5721 14.796C42.1801 15.004 41.7321 15.108 41.2281 15.108C40.6521 15.108 40.1241 14.964 39.6441 14.676C39.1721 14.38 38.7961 13.972 38.5161 13.452C38.2441 12.924 38.1081 12.328 38.1081 11.664C38.1081 11 38.2441 10.412 38.5161 9.9C38.7961 9.388 39.1721 8.992 39.6441 8.712C40.1241 8.424 40.6521 8.28 41.2281 8.28ZM43.5201 11.688C43.5201 11.232 43.4241 10.836 43.2321 10.5C43.0481 10.164 42.8041 9.908 42.5001 9.732C42.1961 9.556 41.8681 9.468 41.5161 9.468C41.1641 9.468 40.8361 9.556 40.5321 9.732C40.2281 9.9 39.9801 10.152 39.7881 10.488C39.6041 10.816 39.5121 11.208 39.5121 11.664C39.5121 12.12 39.6041 12.52 39.7881 12.864C39.9801 13.208 40.2281 13.472 40.5321 13.656C40.8441 13.832 41.1721 13.92 41.5161 13.92C41.8681 13.92 42.1961 13.832 42.5001 13.656C42.8041 13.48 43.0481 13.224 43.2321 12.888C43.4241 12.544 43.5201 12.144 43.5201 11.688ZM49.5649 15.108C48.9409 15.108 48.3769 14.968 47.8729 14.688C47.3689 14.4 46.9729 14 46.6849 13.488C46.3969 12.968 46.2529 12.368 46.2529 11.688C46.2529 11.016 46.4009 10.42 46.6969 9.9C46.9929 9.38 47.3969 8.98 47.9089 8.7C48.4209 8.42 48.9929 8.28 49.6249 8.28C50.2569 8.28 50.8289 8.42 51.3409 8.7C51.8529 8.98 52.2569 9.38 52.5529 9.9C52.8489 10.42 52.9969 11.016 52.9969 11.688C52.9969 12.36 52.8449 12.956 52.5409 13.476C52.2369 13.996 51.8209 14.4 51.2929 14.688C50.7729 14.968 50.1969 15.108 49.5649 15.108ZM49.5649 13.92C49.9169 13.92 50.2449 13.836 50.5489 13.668C50.8609 13.5 51.1129 13.248 51.3049 12.912C51.4969 12.576 51.5929 12.168 51.5929 11.688C51.5929 11.208 51.5009 10.804 51.3169 10.476C51.1329 10.14 50.8889 9.888 50.5849 9.72C50.2809 9.552 49.9529 9.468 49.6009 9.468C49.2489 9.468 48.9209 9.552 48.6169 9.72C48.3209 9.888 48.0849 10.14 47.9089 10.476C47.7329 10.804 47.6449 11.208 47.6449 11.688C47.6449 12.4 47.8249 12.952 48.1849 13.344C48.5529 13.728 49.0129 13.92 49.5649 13.92ZM55.0452 7.512C54.7972 7.512 54.5892 7.428 54.4212 7.26C54.2532 7.092 54.1692 6.884 54.1692 6.636C54.1692 6.388 54.2532 6.18 54.4212 6.012C54.5892 5.844 54.7972 5.76 55.0452 5.76C55.2852 5.76 55.4892 5.844 55.6572 6.012C55.8252 6.18 55.9092 6.388 55.9092 6.636C55.9092 6.884 55.8252 7.092 55.6572 7.26C55.4892 7.428 55.2852 7.512 55.0452 7.512ZM55.7172 8.388V15H54.3492V8.388H55.7172ZM60.8493 8.28C61.3693 8.28 61.8333 8.388 62.2413 8.604C62.6573 8.82 62.9813 9.14 63.2133 9.564C63.4453 9.988 63.5613 10.5 63.5613 11.1V15H62.2053V11.304C62.2053 10.712 62.0573 10.26 61.7613 9.948C61.4653 9.628 61.0613 9.468 60.5493 9.468C60.0373 9.468 59.6293 9.628 59.3253 9.948C59.0293 10.26 58.8813 10.712 58.8813 11.304V15H57.5133V8.388H58.8813V9.144C59.1053 8.872 59.3893 8.66 59.7333 8.508C60.0853 8.356 60.4573 8.28 60.8493 8.28ZM67.9703 8.28C68.4823 8.28 68.9343 8.384 69.3263 8.592C69.7263 8.792 70.0383 9.044 70.2623 9.348V8.388H71.6423V15.108C71.6423 15.716 71.5143 16.256 71.2583 16.728C71.0023 17.208 70.6303 17.584 70.1423 17.856C69.6623 18.128 69.0863 18.264 68.4143 18.264C67.5183 18.264 66.7743 18.052 66.1823 17.628C65.5903 17.212 65.2543 16.644 65.1743 15.924H66.5303C66.6343 16.268 66.8543 16.544 67.1903 16.752C67.5343 16.968 67.9423 17.076 68.4143 17.076C68.9663 17.076 69.4103 16.908 69.7463 16.572C70.0903 16.236 70.2623 15.748 70.2623 15.108V14.004C70.0303 14.316 69.7143 14.58 69.3143 14.796C68.9223 15.004 68.4743 15.108 67.9703 15.108C67.3943 15.108 66.8663 14.964 66.3863 14.676C65.9143 14.38 65.5383 13.972 65.2583 13.452C64.9863 12.924 64.8503 12.328 64.8503 11.664C64.8503 11 64.9863 10.412 65.2583 9.9C65.5383 9.388 65.9143 8.992 66.3863 8.712C66.8663 8.424 67.3943 8.28 67.9703 8.28ZM70.2623 11.688C70.2623 11.232 70.1663 10.836 69.9743 10.5C69.7903 10.164 69.5463 9.908 69.2423 9.732C68.9383 9.556 68.6103 9.468 68.2583 9.468C67.9063 9.468 67.5783 9.556 67.2743 9.732C66.9703 9.9 66.7223 10.152 66.5303 10.488C66.3463 10.816 66.2543 11.208 66.2543 11.664C66.2543 12.12 66.3463 12.52 66.5303 12.864C66.7223 13.208 66.9703 13.472 67.2743 13.656C67.5863 13.832 67.9143 13.92 68.2583 13.92C68.6103 13.92 68.9383 13.832 69.2423 13.656C69.5463 13.48 69.7903 13.224 69.9743 12.888C70.1663 12.544 70.2623 12.144 70.2623 11.688Z" fill="#987B31"/>
</g>
</svg>
