<svg width="40" height="40" viewBox="0 0 40 40" fill="none" xmlns="http://www.w3.org/2000/svg">
<rect width="40" height="40" rx="5" fill="#F5C200"/>
<g clip-path="url(#clip0_217_3111)">
<path d="M29 23H26C25.2044 23 24.4413 23.3161 23.8787 23.8787C23.3161 24.4413 23 25.2044 23 26V29H12.5C12.1022 29 11.7206 28.842 11.4393 28.5607C11.158 28.2794 11 27.8978 11 27.5V12.5C11 12.1022 11.158 11.7206 11.4393 11.4393C11.7206 11.158 12.1022 11 12.5 11H22.5C22.8978 11 23.2794 10.842 23.5607 10.5607C23.842 10.2794 24 9.89782 24 9.5C24 9.10218 23.842 8.72064 23.5607 8.43934C23.2794 8.15804 22.8978 8 22.5 8H12.5C11.3065 8 10.1619 8.47411 9.31802 9.31802C8.47411 10.1619 8 11.3065 8 12.5V27.5C8 28.6935 8.47411 29.8381 9.31802 30.682C10.1619 31.5259 11.3065 32 12.5 32H24.485C25.6781 31.9997 26.8223 31.5257 27.666 30.682L30.682 27.666C31.5257 26.8223 31.9997 25.6781 32 24.485V19.506C32 19.1082 31.842 18.7266 31.5607 18.4453C31.2794 18.164 30.8978 18.006 30.5 18.006C30.1022 18.006 29.7206 18.164 29.4393 18.4453C29.158 18.7266 29 19.1082 29 19.506V23Z" fill="#181F24"/>
<path d="M28.9629 9.00004C28.5627 9.01177 28.169 9.10469 27.8058 9.27315C27.4426 9.44161 27.1173 9.6821 26.8499 9.98004L18.7139 19.073C19.6273 19.2062 20.4857 19.5905 21.1934 20.1831C21.9011 20.7757 22.4303 21.5533 22.7219 22.429L31.1219 14.029C31.6731 13.4766 31.9827 12.728 31.9827 11.9475C31.9827 11.1671 31.6731 10.4185 31.1219 9.86604C30.8383 9.58453 30.5011 9.36283 30.1302 9.21407C29.7593 9.06531 29.3624 8.99253 28.9629 9.00004Z" fill="#181F24"/>
<path d="M17.288 21.0668C14.971 21.5128 13.823 24.0928 13.325 25.7008C13.2781 25.8507 13.2671 26.0095 13.2929 26.1644C13.3188 26.3193 13.3808 26.466 13.4739 26.5925C13.567 26.719 13.6886 26.8218 13.8288 26.8926C13.969 26.9633 14.124 27 14.281 26.9998H18C18.4172 26.9998 18.8297 26.9129 19.2113 26.7446C19.593 26.5763 19.9353 26.3302 20.2165 26.0221C20.4977 25.714 20.7115 25.3507 20.8444 24.9553C20.9772 24.5599 21.0261 24.1411 20.988 23.7258C20.9349 23.3014 20.7947 22.8925 20.5762 22.5248C20.3577 22.1571 20.0657 21.8384 19.7183 21.5888C19.371 21.3392 18.9758 21.164 18.5577 21.0742C18.1395 20.9843 17.7072 20.9818 17.288 21.0668Z" fill="#181F24"/>
</g>
<defs>
<clipPath id="clip0_217_3111">
<rect width="24" height="24" fill="white" transform="translate(8 8)"/>
</clipPath>
</defs>
</svg>
