<svg width="36" height="36" viewBox="0 0 36 36" fill="none" xmlns="http://www.w3.org/2000/svg">
<circle cx="18" cy="18" r="18" fill="#F5C200"/>
<g clip-path="url(#clip0_217_3160)">
<path d="M21.1019 25.1998C21.023 25.2003 20.9447 25.1851 20.8716 25.1553C20.7985 25.1254 20.732 25.0814 20.6759 25.0258L15.7739 20.1238C15.4946 19.8451 15.2729 19.5141 15.1217 19.1496C14.9704 18.7851 14.8926 18.3944 14.8926 17.9998C14.8926 17.6052 14.9704 17.2145 15.1217 16.85C15.2729 16.4855 15.4946 16.1545 15.7739 15.8758L20.6759 10.9738C20.7319 10.9179 20.7983 10.8735 20.8714 10.8432C20.9445 10.8129 21.0228 10.7974 21.1019 10.7974C21.1811 10.7974 21.2594 10.8129 21.3325 10.8432C21.4056 10.8735 21.472 10.9179 21.5279 10.9738C21.5839 11.0298 21.6283 11.0962 21.6585 11.1693C21.6888 11.2424 21.7044 11.3207 21.7044 11.3998C21.7044 11.4789 21.6888 11.5573 21.6585 11.6304C21.6283 11.7035 21.5839 11.7699 21.5279 11.8258L16.6259 16.7278C16.2889 17.0653 16.0995 17.5228 16.0995 17.9998C16.0995 18.4768 16.2889 18.9343 16.6259 19.2718L21.5279 24.1738C21.5842 24.2296 21.6288 24.2959 21.6593 24.3691C21.6897 24.4422 21.7054 24.5206 21.7054 24.5998C21.7054 24.679 21.6897 24.7574 21.6593 24.8305C21.6288 24.9037 21.5842 24.97 21.5279 25.0258C21.4719 25.0814 21.4054 25.1254 21.3323 25.1553C21.2592 25.1851 21.1809 25.2003 21.1019 25.1998Z" fill="#131311"/>
</g>
<defs>
<clipPath id="clip0_217_3160">
<rect width="14.4" height="14.4" fill="white" transform="translate(10.7998 10.7998)"/>
</clipPath>
</defs>
</svg>
