<svg width="435" height="16" viewBox="0 0 435 16" fill="none" xmlns="http://www.w3.org/2000/svg">
<path d="M0.4 15.147V0.746972H6.09C6.23 0.746972 6.39667 0.753639 6.59 0.766972C6.78333 0.773639 6.97 0.793639 7.15 0.826972C7.93 0.946972 8.58333 1.21364 9.11 1.62697C9.64333 2.04031 10.0433 2.56364 10.31 3.19697C10.5767 3.82364 10.71 4.52031 10.71 5.28697C10.71 6.04697 10.5733 6.74364 10.3 7.37697C10.0333 8.00364 9.63333 8.52697 9.1 8.94697C8.57333 9.36031 7.92333 9.62697 7.15 9.74697C6.97 9.77364 6.78333 9.79364 6.59 9.80697C6.39667 9.82031 6.23 9.82697 6.09 9.82697H2.18V15.147H0.4ZM2.18 8.13697H6.03C6.15667 8.13697 6.3 8.13031 6.46 8.11697C6.62667 8.10364 6.78333 8.08031 6.93 8.04697C7.39 7.94031 7.76333 7.74697 8.05 7.46697C8.34333 7.18031 8.55667 6.84697 8.69 6.46697C8.82333 6.08031 8.89 5.68697 8.89 5.28697C8.89 4.88697 8.82333 4.49697 8.69 4.11697C8.55667 3.73031 8.34333 3.39364 8.05 3.10697C7.76333 2.8203 7.39 2.62697 6.93 2.52697C6.78333 2.48697 6.62667 2.46364 6.46 2.45697C6.3 2.44364 6.15667 2.43697 6.03 2.43697H2.18V8.13697ZM23.9047 15.147V0.746972H29.5947C29.7347 0.746972 29.9014 0.753639 30.0947 0.766972C30.288 0.773639 30.4747 0.793639 30.6547 0.826972C31.4347 0.946972 32.088 1.21364 32.6147 1.62697C33.148 2.04031 33.548 2.56364 33.8147 3.19697C34.0814 3.82364 34.2147 4.52031 34.2147 5.28697C34.2147 6.40031 33.9247 7.36697 33.3447 8.18697C32.7647 9.00031 31.9147 9.51031 30.7947 9.71697L30.1147 9.82697H25.6847V15.147H23.9047ZM32.4747 15.147L29.6347 9.28697L31.3947 8.74697L34.5147 15.147H32.4747ZM25.6847 8.13697H29.5347C29.6614 8.13697 29.8047 8.13031 29.9647 8.11697C30.1314 8.10364 30.288 8.08031 30.4347 8.04697C30.8947 7.94031 31.268 7.74697 31.5547 7.46697C31.848 7.18031 32.0614 6.84697 32.1947 6.46697C32.328 6.08031 32.3947 5.68697 32.3947 5.28697C32.3947 4.88697 32.328 4.49697 32.1947 4.11697C32.0614 3.73031 31.848 3.39364 31.5547 3.10697C31.268 2.8203 30.8947 2.62697 30.4347 2.52697C30.288 2.48697 30.1314 2.46364 29.9647 2.45697C29.8047 2.44364 29.6614 2.43697 29.5347 2.43697H25.6847V8.13697ZM53.8372 15.447C52.4039 15.447 51.1872 15.1303 50.1872 14.497C49.1872 13.8636 48.4239 12.9836 47.8972 11.857C47.3772 10.7303 47.1172 9.42697 47.1172 7.94697C47.1172 6.46697 47.3772 5.16364 47.8972 4.03697C48.4239 2.91031 49.1872 2.0303 50.1872 1.39697C51.1872 0.763639 52.4039 0.446972 53.8372 0.446972C55.2772 0.446972 56.4972 0.763639 57.4972 1.39697C58.4972 2.0303 59.2572 2.91031 59.7772 4.03697C60.2972 5.16364 60.5572 6.46697 60.5572 7.94697C60.5572 9.42697 60.2972 10.7303 59.7772 11.857C59.2572 12.9836 58.4972 13.8636 57.4972 14.497C56.4972 15.1303 55.2772 15.447 53.8372 15.447ZM53.8372 13.747C54.9105 13.7536 55.8039 13.5136 56.5172 13.027C57.2372 12.5336 57.7739 11.8503 58.1272 10.977C58.4872 10.1036 58.6672 9.09364 58.6672 7.94697C58.6672 6.79364 58.4872 5.78364 58.1272 4.91697C57.7739 4.05031 57.2372 3.37364 56.5172 2.88697C55.8039 2.40031 54.9105 2.15364 53.8372 2.14697C52.7639 2.1403 51.8705 2.38031 51.1572 2.86697C50.4505 3.35364 49.9172 4.03364 49.5572 4.90697C49.1972 5.78031 49.0139 6.79364 49.0072 7.94697C49.0005 9.09364 49.1772 10.1003 49.5372 10.967C49.8972 11.8336 50.4339 12.5136 51.1472 13.007C51.8672 13.4936 52.7639 13.7403 53.8372 13.747ZM76.3656 15.437C75.359 15.437 74.5056 15.1636 73.8056 14.617C73.1056 14.0703 72.6256 13.337 72.3656 12.417L74.1356 11.997C74.2423 12.4836 74.499 12.897 74.9056 13.237C75.319 13.577 75.7923 13.747 76.3256 13.747C76.6723 13.747 77.0256 13.6636 77.3856 13.497C77.7456 13.3236 78.0223 13.0436 78.2156 12.657C78.349 12.3903 78.4256 12.097 78.4456 11.777C78.4656 11.4503 78.4756 11.067 78.4756 10.627V0.746972H80.2756V10.627C80.2756 11.0403 80.2723 11.4103 80.2656 11.737C80.2656 12.0636 80.2323 12.377 80.1656 12.677C80.1056 12.9703 79.9856 13.2703 79.8056 13.577C79.4456 14.2103 78.9623 14.6803 78.3556 14.987C77.7556 15.287 77.0923 15.437 76.3656 15.437ZM94.4773 15.147V0.746972H103.577V2.43697H96.2573V6.94697H102.377V8.63697H96.2573V13.457H103.577V15.147H94.4773ZM122.593 15.447C121.16 15.447 119.943 15.1303 118.943 14.497C117.943 13.8636 117.18 12.9836 116.653 11.857C116.133 10.7303 115.873 9.42697 115.873 7.94697C115.873 6.46697 116.133 5.16364 116.653 4.03697C117.18 2.91031 117.943 2.0303 118.943 1.39697C119.943 0.763639 121.16 0.446972 122.593 0.446972C124.26 0.446972 125.63 0.870306 126.703 1.71697C127.783 2.56364 128.527 3.70364 128.933 5.13697L127.123 5.61697C126.83 4.54364 126.307 3.69697 125.553 3.07697C124.8 2.45697 123.813 2.14697 122.593 2.14697C121.52 2.14697 120.627 2.39031 119.913 2.87697C119.2 3.36364 118.663 4.04364 118.303 4.91697C117.943 5.78364 117.76 6.79364 117.753 7.94697C117.747 9.09364 117.923 10.1036 118.283 10.977C118.643 11.8436 119.183 12.5236 119.903 13.017C120.623 13.5036 121.52 13.747 122.593 13.747C123.813 13.747 124.8 13.437 125.553 12.817C126.307 12.1903 126.83 11.3436 127.123 10.277L128.933 10.757C128.527 12.1836 127.783 13.3236 126.703 14.177C125.63 15.0236 124.26 15.447 122.593 15.447ZM146.037 15.147V2.43697H141.127V0.746972H152.727V2.43697H147.817V15.147H146.037ZM180.317 15.147V0.746972H182.097V15.147H180.317ZM196.298 15.147V0.746972H198.098L205.608 11.997V0.746972H207.408V15.147H205.608L198.098 3.88697V15.147H196.298ZM225.114 15.147V2.43697H220.204V0.746972H231.804V2.43697H226.894V15.147H225.114ZM244.596 15.147V0.746972H253.696V2.43697H246.376V6.94697H252.496V8.63697H246.376V13.457H253.696V15.147H244.596ZM267.5 15.147V0.746972H269.28V13.457H275.96V15.147H267.5ZM289.052 15.147V0.746972H290.832V13.457H297.512V15.147H289.052ZM310.603 15.147V0.746972H312.383V15.147H310.603ZM332.414 15.447C331.427 15.447 330.527 15.2736 329.714 14.927C328.9 14.5803 328.2 14.0836 327.614 13.437C327.027 12.7836 326.574 11.997 326.254 11.077C325.94 10.1503 325.784 9.10697 325.784 7.94697C325.784 6.41364 326.057 5.08697 326.604 3.96697C327.15 2.84697 327.92 1.98364 328.914 1.37697C329.907 0.763638 331.074 0.456972 332.414 0.456972C334.027 0.456972 335.327 0.833638 336.314 1.58697C337.3 2.33364 337.98 3.35697 338.354 4.65697L336.554 5.02697C336.254 4.15364 335.76 3.45697 335.074 2.93697C334.387 2.41697 333.53 2.15697 332.504 2.15697C331.43 2.15031 330.537 2.39031 329.824 2.87697C329.117 3.35697 328.584 4.03364 328.224 4.90697C327.864 5.78031 327.68 6.79364 327.674 7.94697C327.667 9.09364 327.844 10.1003 328.204 10.967C328.564 11.8336 329.1 12.5136 329.814 13.007C330.534 13.4936 331.43 13.7403 332.504 13.747C333.43 13.7536 334.21 13.577 334.844 13.217C335.477 12.857 335.967 12.337 336.314 11.657C336.66 10.977 336.87 10.1603 336.944 9.20697H333.884V7.73697H338.824C338.844 7.87031 338.854 8.03031 338.854 8.21697C338.86 8.39697 338.864 8.52031 338.864 8.58697C338.864 9.90031 338.617 11.077 338.124 12.117C337.637 13.1503 336.914 13.9636 335.954 14.557C335 15.1503 333.82 15.447 332.414 15.447ZM352.061 15.147V0.746972H361.161V2.43697H353.841V6.94697H359.961V8.63697H353.841V13.457H361.161V15.147H352.061ZM374.765 15.147V0.746972H376.565L384.075 11.997V0.746972H385.875V15.147H384.075L376.565 3.88697V15.147H374.765ZM405.791 15.447C404.358 15.447 403.141 15.1303 402.141 14.497C401.141 13.8636 400.378 12.9836 399.851 11.857C399.331 10.7303 399.071 9.42697 399.071 7.94697C399.071 6.46697 399.331 5.16364 399.851 4.03697C400.378 2.91031 401.141 2.0303 402.141 1.39697C403.141 0.763639 404.358 0.446972 405.791 0.446972C407.458 0.446972 408.828 0.870306 409.901 1.71697C410.981 2.56364 411.724 3.70364 412.131 5.13697L410.321 5.61697C410.028 4.54364 409.504 3.69697 408.751 3.07697C407.998 2.45697 407.011 2.14697 405.791 2.14697C404.718 2.14697 403.824 2.39031 403.111 2.87697C402.398 3.36364 401.861 4.04364 401.501 4.91697C401.141 5.78364 400.958 6.79364 400.951 7.94697C400.944 9.09364 401.121 10.1036 401.481 10.977C401.841 11.8436 402.381 12.5236 403.101 13.017C403.821 13.5036 404.718 13.747 405.791 13.747C407.011 13.747 407.998 13.437 408.751 12.817C409.504 12.1903 410.028 11.3436 410.321 10.277L412.131 10.757C411.724 12.1836 410.981 13.3236 409.901 14.177C408.828 15.0236 407.458 15.447 405.791 15.447ZM425.524 15.147V0.746972H434.624V2.43697H427.304V6.94697H433.424V8.63697H427.304V13.457H434.624V15.147H425.524Z" fill="white"/>
</svg>
