<svg width="24" height="24" viewBox="0 0 24 24" fill="none" xmlns="http://www.w3.org/2000/svg">
<g clip-path="url(#clip0_493_13642)">
<path d="M2 11.0001H13C13.5304 11.0001 14.0391 10.7894 14.4142 10.4143C14.7893 10.0393 15 9.53055 15 9.00012V2.00012C15 1.46969 14.7893 0.960981 14.4142 0.585909C14.0391 0.210836 13.5304 0.00012207 13 0.00012207L2 0.00012207C1.46957 0.00012207 0.960859 0.210836 0.585786 0.585909C0.210714 0.960981 0 1.46969 0 2.00012L0 9.00012C0 9.53055 0.210714 10.0393 0.585786 10.4143C0.960859 10.7894 1.46957 11.0001 2 11.0001ZM2 2.00012H13V9.00012H2V2.00012Z" fill="white"/>
<path d="M22 0.00012207H19C18.4696 0.00012207 17.9609 0.210836 17.5858 0.585909C17.2107 0.960981 17 1.46969 17 2.00012V9.00012C17 9.53055 17.2107 10.0393 17.5858 10.4143C17.9609 10.7894 18.4696 11.0001 19 11.0001H22C22.5304 11.0001 23.0391 10.7894 23.4142 10.4143C23.7893 10.0393 24 9.53055 24 9.00012V2.00012C24 1.46969 23.7893 0.960981 23.4142 0.585909C23.0391 0.210836 22.5304 0.00012207 22 0.00012207V0.00012207ZM22 9.00012H19V2.00012H22V9.00012Z" fill="white"/>
<path d="M5 13.0005H2C1.46957 13.0005 0.960859 13.2112 0.585787 13.5863C0.210714 13.9613 0 14.4701 0 15.0005L0 22.0005C0 22.5309 0.210714 23.0396 0.585787 23.4147C0.960859 23.7898 1.46957 24.0005 2 24.0005H5C5.53043 24.0005 6.03914 23.7898 6.41421 23.4147C6.78929 23.0396 7 22.5309 7 22.0005V15.0005C7 14.4701 6.78929 13.9613 6.41421 13.5863C6.03914 13.2112 5.53043 13.0005 5 13.0005ZM5 22.0005H2V15.0005H5V22.0005Z" fill="white"/>
<path d="M22 13.0005H11C10.4696 13.0005 9.96086 13.2112 9.58579 13.5863C9.21071 13.9613 9 14.4701 9 15.0005V22.0005C9 22.5309 9.21071 23.0396 9.58579 23.4147C9.96086 23.7898 10.4696 24.0005 11 24.0005H22C22.5304 24.0005 23.0391 23.7898 23.4142 23.4147C23.7893 23.0396 24 22.5309 24 22.0005V15.0005C24 14.4701 23.7893 13.9613 23.4142 13.5863C23.0391 13.2112 22.5304 13.0005 22 13.0005ZM22 22.0005H11V15.0005H22V22.0005Z" fill="white"/>
</g>
<defs>
<clipPath id="clip0_493_13642">
<rect width="24" height="24" fill="white"/>
</clipPath>
</defs>
</svg>
