<svg width="31" height="30" viewBox="0 0 31 30" fill="none" xmlns="http://www.w3.org/2000/svg">
<circle cx="15.5" cy="15" r="15" fill="#F5C200"/>
<path fill-rule="evenodd" clip-rule="evenodd" d="M18.3654 10.0002C18.2548 9.79837 18.0015 9.72445 17.7997 9.83506C17.5979 9.94566 17.524 10.1989 17.6346 10.4007C18.3147 11.6415 18.9322 12.5748 19.6896 13.3614C20.1996 13.8911 20.7655 14.3465 21.443 14.7838L7.16667 14.7838C6.93655 14.7838 6.75 14.9703 6.75 15.2004C6.75 15.4306 6.93655 15.6171 7.16667 15.6171L21.4702 15.6171C20.8039 16.0522 20.2413 16.5033 19.729 17.0302C18.9693 17.8115 18.3363 18.7427 17.6361 19.9974C17.524 20.1984 17.596 20.4522 17.797 20.5643C17.9979 20.6764 18.2517 20.6044 18.3639 20.4035C19.0467 19.1798 19.6384 18.3187 20.3264 17.6111C21.0127 16.9053 21.8111 16.3356 22.9267 15.7155C22.9787 15.6866 23.024 15.6517 23.0626 15.6124C23.263 15.5823 23.4167 15.4093 23.4167 15.2004C23.4167 14.9899 23.2605 14.8158 23.0576 14.7877C23.0187 14.7489 22.9731 14.7146 22.9209 14.6864C21.7775 14.0675 20.9718 13.4916 20.2899 12.7834C19.6059 12.073 19.0297 11.2121 18.3654 10.0002Z" fill="#030303"/>
</svg>
