<svg width="40" height="40" viewBox="0 0 40 40" fill="none" xmlns="http://www.w3.org/2000/svg">
<rect width="40" height="40" rx="5" fill="#F5C200"/>
<g clip-path="url(#clip0_132_4148)">
<path d="M27 22C26.2696 22.0027 25.5488 22.1664 24.8889 22.4794C24.229 22.7924 23.6462 23.2471 23.182 23.811L17.782 21.373C17.9194 20.928 17.9928 20.4657 18 20C17.9935 19.5393 17.9225 19.0819 17.789 18.641L23.183 16.191C23.9398 17.0817 24.9863 17.6773 26.1386 17.8732C27.2909 18.0691 28.4754 17.8528 29.484 17.2622C30.4927 16.6717 31.2611 15.7446 31.6542 14.6439C32.0474 13.5432 32.0402 12.3391 31.6339 11.2432C31.2276 10.1473 30.4481 9.22949 29.4325 8.65106C28.4168 8.07262 27.2298 7.8705 26.08 8.08018C24.9301 8.28987 23.8909 8.89795 23.1447 9.79765C22.3986 10.6974 21.9933 11.8312 22 13C22 13.142 22.03 13.276 22.042 13.415L16.1 16.112C15.224 15.3981 14.13 15.0057 13 15C11.6739 15 10.4021 15.5268 9.46447 16.4644C8.52678 17.4021 8 18.6739 8 20C8 21.3261 8.52678 22.5978 9.46447 23.5355C10.4021 24.4732 11.6739 25 13 25C14.1251 24.9954 15.2151 24.6074 16.09 23.9L22.042 26.587C22.03 26.726 22 26.859 22 27C22 27.9889 22.2932 28.9556 22.8427 29.7778C23.3921 30.6001 24.173 31.2409 25.0866 31.6194C26.0002 31.9978 27.0056 32.0968 27.9755 31.9039C28.9454 31.711 29.8363 31.2348 30.5355 30.5355C31.2348 29.8362 31.711 28.9453 31.9039 27.9754C32.0969 27.0055 31.9978 26.0002 31.6194 25.0866C31.241 24.1729 30.6001 23.392 29.7779 22.8426C28.9556 22.2932 27.9889 22 27 22ZM27 11C27.3956 11 27.7822 11.1173 28.1111 11.337C28.44 11.5568 28.6964 11.8692 28.8478 12.2346C28.9991 12.6001 29.0387 13.0022 28.9616 13.3902C28.8844 13.7781 28.6939 14.1345 28.4142 14.4142C28.1345 14.6939 27.7781 14.8844 27.3902 14.9615C27.0022 15.0387 26.6001 14.9991 26.2346 14.8477C25.8692 14.6964 25.5568 14.44 25.3371 14.1111C25.1173 13.7822 25 13.3955 25 13C25 12.4695 25.2107 11.9608 25.5858 11.5858C25.9609 11.2107 26.4696 11 27 11ZM13 22C12.6044 22 12.2178 21.8827 11.8889 21.6629C11.56 21.4432 11.3036 21.1308 11.1522 20.7653C11.0009 20.3999 10.9613 19.9978 11.0384 19.6098C11.1156 19.2218 11.3061 18.8655 11.5858 18.5858C11.8655 18.3061 12.2219 18.1156 12.6098 18.0384C12.9978 17.9612 13.3999 18.0008 13.7654 18.1522C14.1308 18.3036 14.4432 18.5599 14.6629 18.8888C14.8827 19.2177 15 19.6044 15 20C15 20.5304 14.7893 21.0391 14.4142 21.4142C14.0391 21.7893 13.5304 22 13 22ZM27 29C26.6044 29 26.2178 28.8827 25.8889 28.6629C25.56 28.4432 25.3036 28.1308 25.1522 27.7653C25.0009 27.3999 24.9613 26.9978 25.0384 26.6098C25.1156 26.2218 25.3061 25.8655 25.5858 25.5858C25.8655 25.3061 26.2219 25.1156 26.6098 25.0384C26.9978 24.9612 27.3999 25.0008 27.7654 25.1522C28.1308 25.3036 28.4432 25.5599 28.6629 25.8888C28.8827 26.2177 29 26.6044 29 27C29 27.5304 28.7893 28.0391 28.4142 28.4142C28.0391 28.7893 27.5304 29 27 29Z" fill="#181F24"/>
</g>
<defs>
<clipPath id="clip0_132_4148">
<rect width="24" height="24" fill="white" transform="translate(8 8)"/>
</clipPath>
</defs>
</svg>
