<svg width="64" height="64" viewBox="0 0 64 64" fill="none" xmlns="http://www.w3.org/2000/svg">
<circle cx="32" cy="32" r="32" fill="#181F24"/>
<g clip-path="url(#clip0_217_3153)">
<path d="M47.0574 22.3992C47.6833 23.9333 47.8369 25.6124 47.5182 27.2156C47.2052 28.791 46.4391 30.2934 45.2209 31.5116C44.3578 32.3747 43.3488 33.0121 42.2698 33.4221C41.1552 33.8464 39.9686 34.023 38.7936 33.9549C38.0016 33.9088 37.2585 34.0173 36.576 34.2774L36.5424 34.2899C35.8771 34.5481 35.2617 34.9562 34.7078 35.5101L26.8261 43.3918C26.0888 44.129 25.1173 44.4977 24.1467 44.4977C23.1762 44.4977 22.2046 44.129 21.4673 43.3918C20.7291 42.6535 20.3604 41.6829 20.3604 40.7124C20.3604 39.7418 20.7291 38.7703 21.4673 38.033L29.349 30.1513C29.9106 29.5897 30.3225 28.9638 30.5817 28.2831C30.8409 27.6006 30.9494 26.8575 30.9033 26.0655C30.8342 24.8905 31.0118 23.7039 31.4361 22.5893C31.846 21.5103 32.4834 20.5013 33.3465 19.6382C34.5648 18.42 36.0672 17.6539 37.6425 17.3409C39.2602 17.0193 40.9575 17.1787 42.5031 17.82C42.8775 17.9755 43.0541 18.4046 42.8996 18.779C42.8612 18.8712 42.8074 18.9509 42.7412 19.0162L42.7421 19.0171L38.616 23.1432C38.1907 23.5685 37.9776 24.1311 37.9776 24.6936C37.9776 25.2562 38.1907 25.8178 38.616 26.2441C39.0413 26.6703 39.6038 26.8825 40.1664 26.8825C40.729 26.8825 41.2906 26.6693 41.7168 26.2441L45.8429 22.1179C46.13 21.8309 46.5946 21.8309 46.8817 22.1179C46.9642 22.2005 47.0228 22.2975 47.0583 22.4011L47.0574 22.3992ZM28.3477 25.8111C28.6597 26.0684 28.7049 26.5292 28.4485 26.8422C28.1922 27.1542 27.7304 27.1993 27.4175 26.943L25.9199 25.7103C25.6885 25.5202 25.4975 25.3119 25.341 25.0777C25.1845 24.8425 25.0645 24.5852 24.9771 24.2981L24.4443 22.5442C24.3858 22.3522 24.2974 22.1842 24.1794 22.0392C24.0622 21.8971 23.9144 21.7771 23.7358 21.6811L21.0613 20.2411C20.7694 20.0846 20.4526 20.0309 20.1512 20.075C19.8516 20.1192 19.5646 20.2613 19.3294 20.4965L18.2244 21.6024C17.9902 21.8367 17.8471 22.1247 17.803 22.4242C17.7588 22.7256 17.8116 23.0424 17.9691 23.3343L19.4091 26.0089C19.5051 26.1865 19.6251 26.3353 19.7681 26.4514C19.9131 26.5705 20.082 26.6588 20.2731 26.7173L22.027 27.2502C22.3141 27.3375 22.5714 27.4566 22.8066 27.614C23.0408 27.7705 23.2491 27.9615 23.4392 28.1929L25.101 30.2127C25.3583 30.5257 25.3131 30.9865 25.0011 31.2438C24.6882 31.5011 24.2274 31.456 23.9701 31.144L22.3083 29.1241C22.2104 29.006 22.1057 28.9091 21.9915 28.8323C21.8773 28.7554 21.7486 28.6969 21.6027 28.6527L19.8488 28.119C19.4638 28.0018 19.1259 27.8252 18.8388 27.589C18.5489 27.3519 18.3079 27.0562 18.1188 26.7039L16.6788 24.0293C16.3678 23.4514 16.2631 22.8187 16.3514 22.212C16.4407 21.6043 16.723 21.0264 17.1857 20.5637L18.2907 19.4578C18.7534 18.995 19.3313 18.7128 19.939 18.6235C20.5448 18.5342 21.1784 18.6398 21.7563 18.9499L24.4309 20.3899C24.7832 20.58 25.0789 20.82 25.316 21.1099C25.5512 21.3979 25.7288 21.7349 25.8459 22.1208L26.3787 23.8748C26.4229 24.0207 26.4824 24.1493 26.5583 24.2636C26.6351 24.3788 26.7311 24.4824 26.8501 24.5804L28.3477 25.813V25.8111ZM32.6803 41.7233C32.423 41.4113 32.4681 40.9495 32.7811 40.6922C33.0931 40.4349 33.5548 40.481 33.8121 40.793L36.9437 44.5985C37.1395 44.8366 37.3632 45.018 37.6099 45.1428C37.8576 45.2676 38.1379 45.3377 38.4461 45.3531C38.7542 45.3675 39.0403 45.3243 39.2995 45.2244C39.5558 45.1255 39.7958 44.9652 40.0157 44.7454L42.4762 42.2849C42.696 42.065 42.8564 41.825 42.9552 41.5687C43.0551 41.3095 43.0992 41.0244 43.0839 40.7153C43.0695 40.4071 42.9984 40.1268 42.8736 39.8791C42.7488 39.6314 42.5674 39.4077 42.3293 39.2119L40.2259 37.481C39.9139 37.2237 39.8688 36.7629 40.1251 36.4499C40.3824 36.1379 40.8432 36.0928 41.1562 36.3491L43.2596 38.08C43.656 38.4064 43.9652 38.7895 44.1831 39.2234C44.4001 39.6564 44.5239 40.1325 44.5479 40.6452C44.5729 41.1578 44.4961 41.6436 44.3223 42.0957C44.1466 42.5508 43.8768 42.9617 43.5159 43.3226L41.0554 45.7831C40.6944 46.1441 40.2826 46.4139 39.8275 46.5896C39.3754 46.7643 38.8896 46.8401 38.3779 46.8152C37.8653 46.7902 37.3891 46.6673 36.9561 46.4503C36.5222 46.2324 36.1392 45.9233 35.8128 45.5268L32.6812 41.7213L32.6803 41.7233ZM46.0772 26.9343C46.2692 25.9657 46.2548 24.9663 46.0321 24.0044L42.7556 27.2809C42.0423 27.9942 41.1043 28.3503 40.1664 28.3503C39.2285 28.3503 38.2896 27.9942 37.5763 27.2809C36.863 26.5676 36.5069 25.6297 36.5069 24.6917C36.5069 23.7538 36.863 22.8149 37.5763 22.1016L40.8528 18.8251C39.8918 18.6033 38.8915 18.588 37.9229 18.78C36.6278 19.0373 35.3913 19.669 34.3852 20.675C33.6691 21.3912 33.1439 22.2216 32.8079 23.1039C32.4575 24.0264 32.3097 25.0095 32.3673 25.9829C32.4258 26.9833 32.2857 27.9289 31.9535 28.8034C31.6194 29.6799 31.0962 30.4806 30.3877 31.1891L22.5061 39.0708C22.0558 39.521 21.8302 40.1162 21.8302 40.7114C21.8302 41.3066 22.0558 41.9009 22.5061 42.3521C22.9563 42.8023 23.5515 43.0279 24.1467 43.0279C24.7419 43.0279 25.3371 42.8023 25.7874 42.3521L33.6691 34.4704C34.3651 33.7744 35.1532 33.256 36.0172 32.92L36.0547 32.9046C36.9293 32.5724 37.8749 32.4323 38.8752 32.4908C39.8486 32.5475 40.8317 32.4006 41.7543 32.0502C42.6365 31.7152 43.4669 31.1891 44.1831 30.4729C45.1892 29.4668 45.8209 28.2294 46.0781 26.9353L46.0772 26.9343Z" fill="#F5C200"/>
</g>
<defs>
<clipPath id="clip0_217_3153">
<rect width="32" height="30" fill="white" transform="translate(16 17)"/>
</clipPath>
</defs>
</svg>
