<svg width="24" height="24" viewBox="0 0 24 24" fill="none" xmlns="http://www.w3.org/2000/svg">
<path d="M11.7428 7.38424C9.19766 7.38424 7.12762 9.45428 7.12762 11.9994C7.12762 14.5445 9.19766 16.6145 11.7428 16.6145C14.2879 16.6145 16.3579 14.5445 16.3579 11.9994C16.3579 9.45428 14.2879 7.38424 11.7428 7.38424ZM11.7428 14.7685C10.2155 14.7685 8.97368 13.5267 8.97368 11.9994C8.97368 10.4721 10.2155 9.2303 11.7428 9.2303C13.2701 9.2303 14.5119 10.4721 14.5119 11.9994C14.5119 13.5267 13.2701 14.7685 11.7428 14.7685ZM22.4241 13.9673C21.8949 13.443 21.6044 12.744 21.6044 11.9994C21.6044 11.2548 21.8949 10.5558 22.4241 10.0315L23.2154 9.24753C23.5132 8.95216 23.5748 8.4931 23.3656 8.13004L20.9041 3.86688C20.6863 3.48905 20.2309 3.31552 19.8199 3.4509L18.9129 3.74504C18.1732 3.98503 17.3954 3.90872 16.716 3.53336C16.0367 3.15676 15.5604 2.53525 15.3709 1.78329L15.1051 0.717502C15.0792 0.601815 15.0312 0.494744 14.9672 0.40121C14.9241 0.338444 14.8737 0.281832 14.8171 0.231373C14.6571 0.0898415 14.4466 0.00246141 14.2165 0H9.27274C9.04137 0.00246141 8.83214 0.0898415 8.67215 0.231373C8.61554 0.281832 8.56631 0.337213 8.52201 0.40121C8.45801 0.494744 8.41001 0.601815 8.38417 0.717502L8.11834 1.78329C7.93004 2.53649 7.45252 3.15799 6.77317 3.53459C6.09505 3.90995 5.31356 3.98626 4.57636 3.74627L3.66933 3.45213C3.25705 3.31798 2.80292 3.49151 2.58508 3.86811L0.123668 8.13128C-0.0855523 8.49433 -0.0252477 8.95339 0.273814 9.24876L1.06516 10.0327C1.59436 10.557 1.88481 11.256 1.88481 12.0006C1.88481 12.7452 1.59436 13.4442 1.06516 13.9685L0.273814 14.7525C-0.024017 15.0478 -0.0855523 15.5069 0.123668 15.87L2.58508 20.1331C2.80292 20.5097 3.25582 20.6832 3.66933 20.5491L4.57636 20.255C5.31479 20.0162 6.09505 20.0913 6.77317 20.4666C7.45252 20.8432 7.92881 21.4647 8.11834 22.2167L8.38909 23.301C8.49124 23.712 8.86045 24 9.28505 24H14.2079C14.6312 24 15.0004 23.712 15.1038 23.301L15.3746 22.2167C15.5629 21.4635 16.0404 20.842 16.7197 20.4654C17.3991 20.09 18.1781 20.015 18.9166 20.2537L19.8236 20.5479C20.2346 20.682 20.69 20.5085 20.9078 20.1319L23.3692 15.8687C23.5785 15.5057 23.5182 15.0466 23.2191 14.7512L22.4278 13.9673H22.4241ZM21.1244 15.278L21.41 15.561L19.6784 18.5603L19.4814 18.4963C18.2717 18.1025 16.9363 18.2317 15.8201 18.8495C14.7051 19.4673 13.8891 20.5306 13.579 21.7675L13.483 22.1527H10.0013L9.90532 21.7675C9.59641 20.5306 8.77922 19.4673 7.6642 18.8495C6.54795 18.2317 5.21264 18.1025 4.00285 18.4963L3.80594 18.5603L2.07434 15.561L2.35986 15.278C3.24105 14.4054 3.72594 13.2399 3.72594 11.9994C3.72594 10.7588 3.24105 9.59335 2.35986 8.72078L2.07434 8.43772L3.80594 5.43849L4.00285 5.50249C5.21264 5.89631 6.54918 5.76832 7.6642 5.14927C8.77922 4.53146 9.59518 3.46813 9.90532 2.23127L10.0013 1.84606H13.483L13.579 2.23127C13.8879 3.46813 14.7051 4.53146 15.8201 5.14927C16.9351 5.76709 18.2692 5.89508 19.4814 5.50249L19.6784 5.43849L21.41 8.43772L21.1244 8.72078C20.2433 9.59335 19.7584 10.7588 19.7584 11.9994C19.7584 13.2399 20.2433 14.4054 21.1244 15.278Z" fill="white"/>
</svg>
