<svg width="40" height="40" viewBox="0 0 40 40" fill="none" xmlns="http://www.w3.org/2000/svg">
<rect width="40" height="40" rx="5" fill="#F5C200"/>
<g clip-path="url(#clip0_132_4134)">
<path d="M26 21.5001V15.5711C26.0034 14.7167 25.8372 13.8703 25.511 13.0806C25.1849 12.291 24.7053 11.574 24.1 10.9711L23.025 9.90005C22.4221 9.29479 21.705 8.81519 20.9154 8.48904C20.1258 8.1629 19.2793 7.99669 18.425 8.00005H15.5C14.0418 8.00164 12.6438 8.58161 11.6127 9.61272C10.5816 10.6438 10.0016 12.0418 10 13.5001V21.5001C10.0016 22.9583 10.5816 24.3563 11.6127 25.3874C12.6438 26.4185 14.0418 26.9985 15.5 27.0001H20.5C21.9582 26.9985 23.3562 26.4185 24.3873 25.3874C25.4184 24.3563 25.9984 22.9583 26 21.5001ZM13 21.5001V13.5001C13 12.837 13.2634 12.2011 13.7322 11.7323C14.2011 11.2634 14.837 11.0001 15.5 11.0001H18.429C18.6205 11.0031 18.8115 11.0218 19 11.0561V13.0001C19 13.5305 19.2107 14.0392 19.5858 14.4143C19.9609 14.7893 20.4696 15.0001 21 15.0001H22.944C22.9783 15.1885 22.997 15.3795 23 15.5711V21.5001C23 22.1631 22.7366 22.799 22.2678 23.2678C21.7989 23.7367 21.163 24.0001 20.5 24.0001H15.5C14.837 24.0001 14.2011 23.7367 13.7322 23.2678C13.2634 22.799 13 22.1631 13 21.5001ZM31 16.5001V26.5001C30.9984 27.9583 30.4184 29.3563 29.3873 30.3874C28.3562 31.4185 26.9582 31.9985 25.5 32.0001H17.5C17.1022 32.0001 16.7206 31.842 16.4393 31.5607C16.158 31.2794 16 30.8979 16 30.5001C16 30.1022 16.158 29.7207 16.4393 29.4394C16.7206 29.1581 17.1022 29.0001 17.5 29.0001H25.5C26.163 29.0001 26.7989 28.7367 27.2678 28.2678C27.7366 27.799 28 27.1631 28 26.5001V16.5001C28 16.1022 28.158 15.7207 28.4393 15.4394C28.7206 15.1581 29.1022 15.0001 29.5 15.0001C29.8978 15.0001 30.2794 15.1581 30.5607 15.4394C30.842 15.7207 31 16.1022 31 16.5001Z" fill="#181F24"/>
</g>
<defs>
<clipPath id="clip0_132_4134">
<rect width="24" height="24" fill="white" transform="translate(8 8)"/>
</clipPath>
</defs>
</svg>
